<?xml version="1.0" encoding="utf-8" ?>
<svg xmlns="http://www.w3.org/2000/svg" xmlns:xlink="http://www.w3.org/1999/xlink" width="1072" height="1071">
	<path fill="#FEFEFE" d="M0 0L1071.08 0C1072.92 3.23463 1072 10.3825 1072 14.2407L1072 849.748L1072 1018.36C1072 1024.99 1072.92 1066.13 1071.67 1069.83C1071.52 1070.28 1071.32 1070.58 1071.08 1071L0 1071L0 0ZM259.831 238.269C252.895 239.77 246.383 242.432 242.396 248.685C239.107 253.844 237.958 260.578 237.159 266.537C234.972 282.847 234.8 326.888 238.677 342.334Q239.225 344.538 240.064 346.648C248.261 331.084 258.944 317.773 270.202 304.311C274.427 299.919 279.309 295.996 284.067 292.195C300.325 279.209 315.796 270.812 335.094 263.408C324.784 254.692 287.454 241.182 273.506 238.733C268.882 237.922 264.494 237.918 259.831 238.269ZM550.81 238.28C534.384 242.324 501.306 254.235 488.54 264.599C509.755 271.801 541.83 293.706 555.949 311.1C559.458 315.191 579.167 340.193 580.502 340.32C588.092 327.345 586.706 272.879 582.736 257.742C580.893 250.716 577.367 244.878 570.845 241.29C564.462 237.779 557.827 237.746 550.81 238.28ZM393.685 269.272C354.648 273.588 323.969 285.022 294.228 311.388C286.255 318.456 279.284 325.326 272.628 333.624C263.825 344.597 255.253 357.118 249.083 369.732C235.059 398.4 229.816 432.985 233.468 464.602C238.244 505.962 260.794 547.936 293.617 573.626Q296.364 575.802 299.183 577.885Q302.002 579.967 304.889 581.953Q307.776 583.94 310.729 585.828Q313.681 587.716 316.695 589.504Q319.71 591.292 322.782 592.977Q325.855 594.663 328.983 596.244Q332.11 597.825 335.289 599.3Q338.468 600.775 341.695 602.142Q344.922 603.509 348.193 604.767Q351.464 606.025 354.776 607.172Q358.087 608.319 361.435 609.354Q364.784 610.39 368.165 611.311Q371.546 612.233 374.956 613.041Q378.366 613.849 381.802 614.541Q385.237 615.233 388.694 615.81Q392.151 616.386 395.625 616.846C404.798 618.012 414.761 618.914 423.949 617.657C424.226 617.619 424.502 617.567 424.778 617.523C434.801 615.902 445.217 614.631 455 611.912C492.542 601.478 530.97 577.051 553.782 545.232C563.632 531.492 572.851 515.171 578.425 499.201C587.885 472.099 588.905 437.757 584.122 409.635C579.242 380.949 565.404 352.122 546.39 330.119C542.83 326 538.788 322.198 534.925 318.364C527.737 311.231 520.286 304.429 511.969 298.612C501.568 291.339 489.349 285.739 477.511 281.283C452.919 272.027 436.588 268.916 410.262 268.952C404.847 268.959 399.068 268.627 393.685 269.272ZM596.105 298.746C597.001 314.071 600.578 337.423 589.443 349.882Q587.702 351.792 585.868 353.614C587.999 359.386 590.999 364.74 593.316 370.425C596.033 377.095 599.312 390.611 603.371 395.767C605.677 396 607.746 394.141 609.425 392.755C616.305 387.074 622.03 379.336 622.96 370.223C623.491 365.021 622.312 360.002 618.914 355.95C615.585 351.98 611.214 348.957 607.718 345.105C608.212 342.011 608.555 338.605 611.205 336.516C612.639 335.386 614.301 335.031 616.085 335.343C622.855 336.527 630.049 344.957 633.646 350.487C638.948 358.637 640.263 369.502 638.219 378.948C636.082 388.826 629.91 399.882 621.122 405.267C616.209 408.279 610.675 409.616 604.99 410.166C605.044 416.328 605.693 422.393 605.949 428.536C606.368 438.59 606.354 449.035 605.968 459.093C605.633 467.828 603.018 476.387 602.953 485.075L602.94 486.032C602.938 486.224 602.942 486.415 602.944 486.607C606.823 490.133 612.049 491.648 615.936 495.098C620.939 481.471 632.129 480.474 633.073 462.324C633.271 458.515 633.068 454.609 631.371 451.121C628.077 444.348 613.23 437.055 615.814 428.986C616.448 427.007 617.997 425.433 619.832 424.516C622.453 423.207 625.196 423.34 627.896 424.313C632.41 425.94 635.318 429.357 638.253 432.957L644.779 432.736C651.406 426.149 657.929 416.503 658.083 406.824C658.204 399.238 648.529 391.063 653.212 386.291C654.052 385.434 654.642 385.121 655.86 385.036C660.46 384.714 665.691 387.814 668.622 391.139C674.113 397.367 674.626 405.341 673.998 413.218C673.184 423.423 669.543 435.181 661.371 441.889C657.274 445.252 652.164 447.259 647.081 448.586C650.278 459.718 650.55 472.479 644.806 482.862C639.533 492.394 632.91 497.12 622.514 500.037Q621.951 500.194 621.386 500.342C630.085 511.92 635.672 522.079 633.677 536.961C632.638 544.717 625.366 558.623 619.544 563.393C615.627 566.603 606.903 569.507 601.896 570.954C601.337 572.778 601.38 574.369 601.424 576.264C600.013 584.036 596.303 593.376 589.623 598.033C585.749 600.733 579.612 603.208 574.802 602.424C573.07 602.141 571.622 601.404 570.552 599.977C569.217 598.198 569.258 595.45 569.768 593.397C571.857 585.003 581.929 587.893 584.041 570.437C581.072 563.914 575.816 554.82 578.597 547.557C579.096 546.254 579.917 545.063 581.25 544.504C583.02 543.762 585.208 544.392 586.826 545.244C592.204 548.076 594.22 553.455 597.727 557.984C605.392 554.962 611.196 549.538 614.477 541.873C617.219 535.466 618.324 527.68 615.573 521.11C611.436 511.23 602.011 511.683 597.256 503.939C590.084 522.378 581.501 541.389 569.4 557.178C566.28 561.249 562.607 564.836 559.242 568.696C554.684 573.925 550.392 579.396 545.903 584.687C555.013 591.345 558.532 596.427 560.286 607.597Q561.121 612.826 561.142 618.122C565.83 617.103 570.441 615.92 574.89 614.095C588.633 608.458 610.825 593.988 621.829 584.386C632.323 575.228 641.991 564.568 651.227 554.148C657.829 546.699 664.955 538.728 670.334 530.338C677.441 519.254 684.478 505.978 688.006 493.256C692.796 475.991 692.774 436.453 688.827 418.62C684.94 401.062 678.363 381.206 669.021 365.814C661.778 353.881 637.554 328.835 626.449 319.411C618.795 312.915 609.951 306.802 601.439 301.453C599.715 300.369 598.03 299.438 596.105 298.746ZM827.936 308.004C798.313 310.205 765.069 329.226 742.643 348.185C733.522 355.896 723.436 366.357 715.619 375.42C710.678 381.147 706.524 387.481 701.648 393.245C703.091 400.163 705.434 406.806 707.169 413.645C710.851 428.161 711.833 442.823 710.68 457.739C709.991 466.653 709.64 476.666 707.442 485.35C706.201 490.25 700.764 497.622 702.318 502.478C703.782 507.055 709.621 510.276 712.986 513.467C717.775 518.008 722.188 522.962 727.054 527.422C736.168 535.774 746.751 543.343 757.081 550.122C767.884 557.211 780.501 564.656 792.925 568.147C809.711 572.872 829.67 578.103 845.953 569.045Q846.673 568.641 847.373 568.201Q848.073 567.762 848.75 567.289Q849.427 566.816 850.081 566.31Q850.734 565.804 851.361 565.267Q851.989 564.73 852.59 564.163Q853.19 563.596 853.762 563Q854.335 562.404 854.877 561.78Q855.419 561.157 855.93 560.508Q856.441 559.859 856.92 559.186Q857.399 558.512 857.844 557.816Q858.289 557.12 858.699 556.403Q859.11 555.686 859.484 554.95Q859.859 554.214 860.198 553.46Q860.536 552.706 860.837 551.937Q861.138 551.168 861.401 550.384Q861.664 549.601 861.888 548.806C867.002 530.225 854.423 500.813 845.234 484.837C834.86 466.8 822.03 456.793 804.007 447.438C810.752 441.806 818.351 436.932 824.533 430.674C843.422 411.549 859.483 378.05 861.862 351.372C862.9 339.731 862.335 328.149 854.516 318.816C849.267 312.551 842.52 308.62 834.259 308.015C832.16 307.861 830.037 307.943 827.936 308.004ZM281.987 587.786C273.541 594.493 270.58 604.225 269.396 614.602C267.449 631.659 269.063 652.632 280.229 666.549C285.986 673.725 294.101 678.956 303.376 679.892C318.22 681.391 332.17 673.402 344.161 665.67C351.186 660.4 365.318 640.851 370.283 633.009C351.735 626.585 332.265 620.313 315.409 609.976C309.986 606.651 304.574 603.036 299.523 599.169C294.918 595.642 290.347 591.436 285.254 588.664C284.223 588.102 283.163 587.801 281.987 587.786ZM539.153 587.745C519.718 604.476 502.388 615.003 478.726 624.622C471.544 627.542 463.867 629.279 456.934 632.749C462.92 646.61 473.164 661.077 486.292 669.026C497.399 676.268 511.385 683.287 525.077 680.422Q525.909 680.245 526.731 680.028Q527.553 679.811 528.364 679.554Q529.174 679.297 529.971 679Q530.768 678.704 531.55 678.37Q532.332 678.035 533.096 677.662Q533.861 677.29 534.606 676.881Q535.352 676.472 536.076 676.027Q536.801 675.582 537.503 675.102Q538.205 674.623 538.883 674.109Q539.561 673.596 540.213 673.05Q540.865 672.504 541.49 671.928Q542.115 671.351 542.711 670.744Q543.307 670.138 543.872 669.503Q544.438 668.868 544.972 668.206Q545.506 667.544 546.008 666.857Q546.509 666.171 546.976 665.46C557.083 649.897 556.572 623.954 552.735 606.553C551.323 600.153 549.253 593.179 543.448 589.427C542.066 588.533 540.803 587.932 539.153 587.745Z"/>
	<path d="M240.064 346.648Q239.225 344.538 238.677 342.334C234.8 326.888 234.972 282.847 237.159 266.537C237.958 260.578 239.107 253.844 242.396 248.685C246.383 242.432 252.895 239.77 259.831 238.269C264.494 237.918 268.882 237.922 273.506 238.733C287.454 241.182 324.784 254.692 335.094 263.408C315.796 270.812 300.325 279.209 284.067 292.195C279.309 295.996 274.427 299.919 270.202 304.311C258.944 317.773 248.261 331.084 240.064 346.648Z"/>
	<path d="M488.54 264.599C501.306 254.235 534.384 242.324 550.81 238.28C557.827 237.746 564.462 237.779 570.845 241.29C577.367 244.878 580.893 250.716 582.736 257.742C586.706 272.879 588.092 327.345 580.502 340.32C579.167 340.193 559.458 315.191 555.949 311.1C541.83 293.706 509.755 271.801 488.54 264.599Z"/>
	<path d="M424.778 617.523C424.502 617.567 424.226 617.619 423.949 617.657C414.761 618.914 404.798 618.012 395.625 616.846Q392.151 616.386 388.694 615.81Q385.237 615.233 381.802 614.541Q378.366 613.849 374.956 613.041Q371.546 612.233 368.165 611.311Q364.784 610.39 361.435 609.354Q358.087 608.319 354.776 607.172Q351.464 606.025 348.193 604.767Q344.922 603.509 341.695 602.142Q338.468 600.775 335.289 599.3Q332.11 597.825 328.983 596.244Q325.855 594.663 322.782 592.977Q319.71 591.292 316.695 589.504Q313.681 587.716 310.729 585.828Q307.776 583.94 304.889 581.953Q302.002 579.967 299.183 577.885Q296.364 575.802 293.617 573.626C260.794 547.936 238.244 505.962 233.468 464.602C229.816 432.985 235.059 398.4 249.083 369.732C255.253 357.118 263.825 344.597 272.628 333.624C279.284 325.326 286.255 318.456 294.228 311.388C323.969 285.022 354.648 273.588 393.685 269.272C399.068 268.627 404.847 268.959 410.262 268.952C436.588 268.916 452.919 272.027 477.511 281.283C489.349 285.739 501.568 291.339 511.969 298.612C520.286 304.429 527.737 311.231 534.925 318.364C538.788 322.198 542.83 326 546.39 330.119C565.404 352.122 579.242 380.949 584.122 409.635C588.905 437.757 587.885 472.099 578.425 499.201C572.851 515.171 563.632 531.492 553.782 545.232C530.97 577.051 492.542 601.478 455 611.912C445.217 614.631 434.801 615.902 424.778 617.523ZM327.427 341.99C319.051 343.156 311.951 345.945 306.789 353.049C302.212 359.349 300.93 367.741 302.318 375.324C303.693 382.834 308.819 389.78 315.227 393.872C321.265 397.727 326.51 398.13 333.425 397.882C340.486 396.891 347.028 393.442 351.378 387.676C355.723 381.918 357.637 374.033 356.622 366.928C355.501 359.078 351.094 352.211 344.704 347.61C339.927 344.169 333.405 341.704 327.427 341.99ZM487.54 342.018C480.629 343.332 474.252 346.913 470.248 352.83C466.077 358.991 464.352 368.099 465.802 375.394C467.283 382.84 472.411 389.215 478.693 393.289C484.958 397.351 490.297 398.367 497.527 397C504.648 395.312 510.878 391.093 514.816 384.844C518.938 378.303 520.084 369.936 518.358 362.431C516.71 355.264 511.935 349.167 505.677 345.406C499.606 341.757 494.355 341.748 487.54 342.018ZM427.266 364.876C420.108 367.183 412.712 369.159 405.117 367.83C402.343 367.345 398.848 365.813 396.051 366.283C394.101 366.612 391.149 368.533 390.373 370.467C389.811 371.868 389.907 373.065 390.558 374.398C392.542 378.465 399.651 382.472 398.307 387.561C397.974 388.821 396.857 389.608 395.733 390.136C390.399 392.637 377.594 389.537 374.845 394.273C375.155 399.032 376.317 403.631 380.062 406.872C383.449 409.802 388.053 410.997 392.465 410.557C396.639 410.139 400.075 408.498 403.767 406.672C407.031 404.557 409.745 401.882 412.561 399.219C417.983 404.492 424.02 412.183 432.279 411.961C436.708 411.843 441.155 409.885 444.072 406.523C445.85 404.473 447.011 401.824 446.76 399.071C446.491 396.126 444.94 394.181 442.671 392.419C441.967 391.873 441.24 391.386 440.487 390.909C436.277 391.48 428.969 393.419 425.381 390.719C423.999 389.679 422.844 387.397 422.795 385.659C422.745 383.894 423.329 382.601 424.622 381.444C427.286 379.06 433.055 377.218 433.708 373.339C434.117 370.904 432.624 367.902 430.929 366.224C429.766 365.072 428.829 365.018 427.266 364.876ZM524.626 404.191C521.249 405.771 518.082 407.307 516.715 411.056C515.81 413.537 515.726 416.699 516.955 419.09C518.416 421.931 521.428 423.442 524.386 424.233C531.768 426.206 541.436 425.246 548.852 423.757C552.341 422.493 555.605 420.924 557.202 417.337C558.164 415.178 558.102 412.607 557.151 410.453C556.28 408.478 554.371 406.85 552.692 405.56C543.276 404.171 534.133 403.758 524.626 404.191ZM271.326 405.264C267.744 407.051 264.916 408.717 263.472 412.68C262.632 414.985 262.632 417.456 263.727 419.683C265.13 422.537 268.199 424.475 271.166 425.373C277.33 427.237 290.785 426.37 297.128 425.074C300.65 423.707 304.315 421.535 305.794 417.838C306.55 415.95 306.47 413.963 305.578 412.138C304.011 408.93 300.5 406.893 297.183 405.945C290.427 404.015 278.347 404.474 271.326 405.264ZM365.864 496.875C355.965 498.628 354.075 507.453 347.631 513.605C341.495 519.463 328.466 522.806 321.165 517.504C316.575 514.172 311.077 500.986 307.58 501.198C305.588 501.32 303.616 502.93 302.463 504.482C300.804 506.715 300.299 509.659 300.771 512.364C302.081 519.881 309.626 527.919 315.819 532.026C321.798 535.991 328.718 538.077 335.848 536.556C357.624 531.91 359.287 518.509 373.799 513.373C373.948 513.501 374.1 513.626 374.246 513.758C376.989 516.23 378.925 519.439 381.04 522.438C388.753 533.378 397.213 537.669 410.67 537.137C418.668 536.82 425.421 532.624 430.676 526.836C434.822 522.27 439.624 511.803 446.37 511.434C448.931 511.294 450.71 513.132 452.524 514.66C463.25 526.532 470.092 536.167 487.535 536.961C495.929 537.343 504.695 534.481 510.88 528.724C516.149 523.82 519.759 517.227 519.927 509.921C519.962 508.404 519.889 506.911 519.768 505.4C518.124 503.71 516.431 501.543 513.914 501.321C511.97 501.149 509.997 502.415 508.714 503.77C502.304 510.541 499.43 518.367 488.576 519.215C482.429 519.695 477.117 517.324 472.674 513.182C467.113 507.998 462.242 497.014 453.603 497.104C449.497 497.147 437.136 499.792 433.4 501.493C431.295 502.452 429.501 503.898 427.925 505.577C421.718 512.191 418.616 520.267 408.162 520.989C401.384 521.457 395.657 518.593 390.775 514.101C383.339 507.258 376.922 497.382 365.864 496.875ZM466.502 543.853C461.692 549.908 456.361 556.805 448.022 557.652C443.774 558.083 440.069 555.793 437.023 553.082C433.986 550.379 431.418 547.17 427.334 546.126C425.433 546.619 423.851 548.446 422.919 550.129C421.623 552.469 421.602 555.068 422.452 557.565C423.648 561.082 426.178 564.035 428.481 566.884C434.576 572.208 443.148 575.438 451.297 574.866C458.655 574.35 466.463 570.805 471.204 565.097C474.393 561.257 476.332 556.302 475.714 551.267C475.413 548.815 474.376 546.668 472.318 545.219C470.561 543.982 468.581 543.82 466.502 543.853ZM347.246 545.424C345.061 546.568 343.673 547.339 342.973 549.872C341.926 553.658 343.269 557.303 345.24 560.542C348.701 566.229 354.047 570.933 360.629 572.494C367.532 574.131 376.522 573.941 382.616 570.097C385.11 568.524 387.064 566.403 388.752 564.009C390.894 560.429 392.915 556.329 391.934 552.008C391.553 550.328 390.606 548.875 389.096 548.004C387.833 547.276 386.299 546.795 384.855 547.187C377.701 549.128 373.268 562 361.771 556.149C356.681 553.559 353.334 544.57 347.246 545.424ZM424.77 579.919C420.935 581.996 418.47 585.318 415.003 587.794C411.952 587.999 408.819 588.379 405.835 587.531C402.393 586.552 395.037 580.948 392.524 580.985C391.23 581.004 388.933 582.785 388.145 583.72C387.237 584.797 386.793 586.035 386.927 587.443C387.312 591.473 391.103 594.703 393.841 597.357C398.859 601.789 404.508 603.681 411.211 603.214C417.659 602.765 424.25 599.698 428.459 594.732C430.607 592.198 432.45 588.606 431.956 585.181C431.704 583.43 430.817 582.048 429.327 581.096C427.897 580.182 426.447 579.919 424.77 579.919Z"/>
	<path d="M585.868 353.614Q587.702 351.792 589.443 349.882C600.578 337.423 597.001 314.071 596.105 298.746C598.03 299.438 599.715 300.369 601.439 301.453C609.951 306.802 618.795 312.915 626.449 319.411C637.554 328.835 661.778 353.881 669.021 365.814C678.363 381.206 684.94 401.062 688.827 418.62C692.774 436.453 692.796 475.991 688.006 493.256C684.478 505.978 677.441 519.254 670.334 530.338C664.955 538.728 657.829 546.699 651.227 554.148C641.991 564.568 632.323 575.228 621.829 584.386C610.825 593.988 588.633 608.458 574.89 614.095C570.441 615.92 565.83 617.103 561.142 618.122Q561.121 612.826 560.286 607.597C558.532 596.427 555.013 591.345 545.903 584.687C550.392 579.396 554.684 573.925 559.242 568.696C562.607 564.836 566.28 561.249 569.4 557.178C581.501 541.389 590.084 522.378 597.256 503.939C602.011 511.683 611.436 511.23 615.573 521.11C618.324 527.68 617.219 535.466 614.477 541.873C611.196 549.538 605.392 554.962 597.727 557.984C594.22 553.455 592.204 548.076 586.826 545.244C585.208 544.392 583.02 543.762 581.25 544.504C579.917 545.063 579.096 546.254 578.597 547.557C575.816 554.82 581.072 563.914 584.041 570.437C581.929 587.893 571.857 585.003 569.768 593.397C569.258 595.45 569.217 598.198 570.552 599.977C571.622 601.404 573.07 602.141 574.802 602.424C579.612 603.208 585.749 600.733 589.623 598.033C596.303 593.376 600.013 584.036 601.424 576.264C601.38 574.369 601.337 572.778 601.896 570.954C606.903 569.507 615.627 566.603 619.544 563.393C625.366 558.623 632.638 544.717 633.677 536.961C635.672 522.079 630.085 511.92 621.386 500.342Q621.951 500.194 622.514 500.037C632.91 497.12 639.533 492.394 644.806 482.862C650.55 472.479 650.278 459.718 647.081 448.586C652.164 447.259 657.274 445.252 661.371 441.889C669.543 435.181 673.184 423.423 673.998 413.218C674.626 405.341 674.113 397.367 668.622 391.139C665.691 387.814 660.46 384.714 655.86 385.036C654.642 385.121 654.052 385.434 653.212 386.291C648.529 391.063 658.204 399.238 658.083 406.824C657.929 416.503 651.406 426.149 644.779 432.736L638.253 432.957C635.318 429.357 632.41 425.94 627.896 424.313C625.196 423.34 622.453 423.207 619.832 424.516C617.997 425.433 616.448 427.007 615.814 428.986C613.23 437.055 628.077 444.348 631.371 451.121C633.068 454.609 633.271 458.515 633.073 462.324C632.129 480.474 620.939 481.471 615.936 495.098C612.049 491.648 606.823 490.133 602.944 486.607C602.942 486.415 602.938 486.224 602.94 486.032L602.953 485.075C603.018 476.387 605.633 467.828 605.968 459.093C606.354 449.035 606.368 438.59 605.949 428.536C605.693 422.393 605.044 416.328 604.99 410.166C610.675 409.616 616.209 408.279 621.122 405.267C629.91 399.882 636.082 388.826 638.219 378.948C640.263 369.502 638.948 358.637 633.646 350.487C630.049 344.957 622.855 336.527 616.085 335.343C614.301 335.031 612.639 335.386 611.205 336.516C608.555 338.605 608.212 342.011 607.718 345.105C611.214 348.957 615.585 351.98 618.914 355.95C622.312 360.002 623.491 365.021 622.96 370.223C622.03 379.336 616.305 387.074 609.425 392.755C607.746 394.141 605.677 396 603.371 395.767C599.312 390.611 596.033 377.095 593.316 370.425C590.999 364.74 587.999 359.386 585.868 353.614ZM657.131 477.806C655.439 478.857 652.528 480.364 652.03 482.519C650.742 488.085 661.769 494.158 659.258 507.593C657.705 515.907 644.248 523.485 650.432 530.526C651.352 531.573 652.836 532.464 654.24 532.609C655.663 532.755 657.547 532.286 658.899 531.823C667.166 526.33 673.894 519.511 675.885 509.41Q676.027 508.705 676.134 507.994Q676.24 507.283 676.311 506.567Q676.382 505.851 676.417 505.133Q676.451 504.415 676.45 503.696Q676.448 502.976 676.411 502.258Q676.374 501.54 676.3 500.825Q676.227 500.109 676.117 499.399Q676.008 498.688 675.863 497.983Q675.719 497.279 675.539 496.583Q675.359 495.887 675.144 495.2Q674.929 494.514 674.68 493.839Q674.432 493.164 674.149 492.503Q673.867 491.842 673.551 491.195Q673.236 490.549 672.889 489.919Q672.542 489.29 672.163 488.678Q671.785 488.067 671.376 487.475C668.401 483.217 664.069 478.831 658.742 477.934C657.91 477.794 657.86 477.816 657.131 477.806Z"/>
	<path d="M701.648 393.245C706.524 387.481 710.678 381.147 715.619 375.42C723.436 366.357 733.522 355.896 742.643 348.185C765.069 329.226 798.313 310.205 827.936 308.004C830.037 307.943 832.16 307.861 834.259 308.015C842.52 308.62 849.267 312.551 854.516 318.816C862.335 328.149 862.9 339.731 861.862 351.372C859.483 378.05 843.422 411.549 824.533 430.674C818.351 436.932 810.752 441.806 804.007 447.438C822.03 456.793 834.86 466.8 845.234 484.837C854.423 500.813 867.002 530.225 861.888 548.806Q861.664 549.601 861.401 550.384Q861.138 551.168 860.837 551.937Q860.536 552.706 860.198 553.46Q859.859 554.214 859.485 554.95Q859.11 555.686 858.699 556.403Q858.289 557.12 857.844 557.816Q857.399 558.512 856.92 559.186Q856.441 559.859 855.93 560.508Q855.419 561.157 854.877 561.781Q854.335 562.404 853.763 563Q853.19 563.596 852.59 564.163Q851.989 564.73 851.361 565.267Q850.734 565.804 850.081 566.31Q849.427 566.816 848.75 567.289Q848.073 567.762 847.373 568.201Q846.673 568.641 845.953 569.045C829.67 578.103 809.711 572.872 792.925 568.147C780.501 564.656 767.884 557.211 757.081 550.122C746.751 543.343 736.168 535.774 727.054 527.422C722.188 522.962 717.775 518.008 712.986 513.467C709.621 510.276 703.782 507.055 702.318 502.478C700.764 497.622 706.201 490.25 707.442 485.35C709.64 476.666 709.991 466.653 710.68 457.739C711.833 442.823 710.851 428.161 707.169 413.645C705.434 406.806 703.091 400.163 701.648 393.245ZM797.199 375.976C784.511 379.808 772.325 387.233 760.482 393.111C753.949 396.353 747.306 399.077 741.051 402.883C737.607 404.978 731.66 408.598 729.756 412.26C728.749 414.197 728.527 416.55 729.3 418.607C730.444 421.651 733.162 423.454 735.738 425.188C737.853 424.495 740.01 423.861 742.089 423.071C750.641 419.98 758.664 415.105 767.032 411.458Q777.931 406.766 788.913 402.272C793.434 400.424 798.191 398.788 802.439 396.368C805.627 394.552 808.866 392.193 810.576 388.849C811.693 386.665 811.845 384.219 810.954 381.928C810.089 379.701 808.455 377.591 806.213 376.638C803.533 375.498 800.058 375.874 797.199 375.976ZM748.231 436.125C745.303 436.878 742.965 437.934 741.259 440.559Q741.027 440.911 740.835 441.286Q740.642 441.661 740.49 442.055Q740.338 442.448 740.229 442.855Q740.12 443.263 740.055 443.679Q739.99 444.096 739.97 444.517Q739.95 444.938 739.974 445.359Q739.999 445.78 740.068 446.196Q740.138 446.612 740.251 447.018C741.053 449.997 743.578 452.702 746.259 454.132C752.902 457.675 770.468 456.416 777.895 454.529C780.545 453.597 784.045 452.491 785.452 449.801C786.119 448.526 786.024 447.101 785.454 445.818C783.759 442.002 779.829 439.753 776.044 438.49C767.36 435.591 757.286 435.881 748.231 436.125ZM735.465 475.822C732.462 477.099 730.1 478.88 728.921 482.06C728.333 483.647 728.448 485.304 729.119 486.844C730.29 489.531 735.617 492.38 738.116 493.844C748.736 500.066 760.309 504.799 771.413 510.093C779.983 514.179 788.675 519.96 797.893 522.293C799.504 522.701 801.094 523.083 802.749 522.732C805.804 521.111 808.687 519.763 809.668 516.133C810.215 514.11 810.06 511.755 810.055 509.669C808.571 508.06 806.746 505.64 804.793 504.646C799.566 501.987 793.577 500.312 788.18 497.933C779.134 493.946 744.224 476.287 736.247 475.848C735.986 475.833 735.725 475.83 735.465 475.822Z"/>
	<path fill="#FEFEFE" d="M333.425 397.882C326.51 398.13 321.265 397.727 315.227 393.872C308.819 389.78 303.693 382.834 302.318 375.324C300.93 367.741 302.212 359.349 306.789 353.049C311.951 345.945 319.051 343.156 327.427 341.99C333.405 341.704 339.927 344.169 344.704 347.61C351.094 352.211 355.501 359.078 356.622 366.928C357.637 374.033 355.723 381.918 351.378 387.676C347.028 393.442 340.486 396.891 333.425 397.882ZM328.267 358.171C322.843 359.197 320.455 360.354 317.303 364.909C316.973 368.383 316.913 371.484 317.279 374.962C319.582 378.285 322.364 382.065 326.594 382.915C328.227 383.244 330.077 383.105 331.738 383.069C335.595 382.088 339.025 380.353 341.211 376.887Q341.561 376.321 341.853 375.723Q342.145 375.125 342.375 374.501Q342.605 373.876 342.771 373.232Q342.937 372.588 343.038 371.93Q343.139 371.272 343.173 370.607Q343.207 369.943 343.174 369.278Q343.141 368.614 343.042 367.956Q342.942 367.298 342.777 366.653C342.001 363.686 340.126 361.244 337.406 359.795C334.851 358.434 331.135 358.072 328.267 358.171Z"/>
	<path fill="#FEFEFE" d="M497.527 397C490.297 398.367 484.958 397.351 478.693 393.289C472.411 389.215 467.283 382.84 465.802 375.394C464.352 368.099 466.077 358.991 470.248 352.83C474.252 346.913 480.629 343.332 487.54 342.018C494.355 341.748 499.606 341.757 505.677 345.406C511.935 349.167 516.71 355.264 518.358 362.431C520.084 369.936 518.938 378.303 514.816 384.844C510.878 391.093 504.648 395.312 497.527 397ZM487.316 358.187C483.959 360.223 482.136 362.12 480.102 365.474C480.022 368.674 479.868 371.89 480.076 375.087C482.363 378.937 485.106 382.551 489.669 383.722C492.089 384.343 494.196 383.854 496.465 382.93C500.454 380.34 503.807 377.6 504.911 372.688C505.61 369.58 505.149 366.211 503.427 363.504C501.674 360.747 498.602 358.89 495.441 358.204C492.926 357.659 489.863 357.945 487.316 358.187Z"/>
	<path d="M317.303 364.909C320.455 360.354 322.843 359.197 328.267 358.171C331.135 358.072 334.851 358.434 337.406 359.795C340.126 361.244 342.001 363.686 342.777 366.653Q342.942 367.298 343.042 367.956Q343.141 368.614 343.174 369.278Q343.207 369.943 343.173 370.607Q343.139 371.272 343.038 371.93Q342.937 372.588 342.771 373.232Q342.605 373.876 342.375 374.501Q342.145 375.125 341.853 375.723Q341.561 376.321 341.211 376.887C339.025 380.353 335.595 382.088 331.738 383.069C330.077 383.105 328.227 383.244 326.594 382.915C322.364 382.065 319.582 378.285 317.279 374.962C316.913 371.484 316.973 368.383 317.303 364.909Z"/>
	<path d="M480.102 365.474C482.136 362.12 483.959 360.223 487.316 358.187C489.863 357.945 492.926 357.659 495.441 358.204C498.602 358.89 501.674 360.747 503.427 363.504C505.149 366.211 505.61 369.58 504.911 372.688C503.807 377.6 500.454 380.34 496.465 382.93C494.196 383.854 492.089 384.343 489.669 383.722C485.106 382.551 482.363 378.937 480.076 375.087C479.868 371.89 480.022 368.674 480.102 365.474Z"/>
	<path fill="#FEFEFE" d="M403.767 406.672C400.075 408.498 396.639 410.139 392.465 410.557C388.053 410.997 383.449 409.802 380.062 406.872C376.317 403.631 375.155 399.032 374.845 394.273C377.594 389.537 390.399 392.637 395.733 390.136C396.857 389.608 397.974 388.821 398.307 387.561C399.651 382.472 392.542 378.465 390.558 374.398C389.907 373.065 389.811 371.868 390.373 370.467C391.149 368.533 394.101 366.612 396.051 366.283C398.848 365.813 402.343 367.345 405.117 367.83C412.712 369.159 420.108 367.183 427.266 364.876C428.829 365.018 429.766 365.072 430.929 366.224C432.624 367.902 434.117 370.904 433.708 373.339C433.055 377.218 427.286 379.06 424.622 381.444C423.329 382.601 422.745 383.894 422.795 385.659C422.844 387.397 423.999 389.679 425.381 390.719C428.969 393.419 436.277 391.48 440.487 390.909C441.24 391.386 441.967 391.873 442.671 392.419C444.94 394.181 446.491 396.126 446.76 399.071C447.011 401.824 445.85 404.473 444.072 406.523C441.155 409.885 436.708 411.843 432.279 411.961C424.02 412.183 417.983 404.492 412.561 399.219C409.745 401.882 407.031 404.557 403.767 406.672Z"/>
	<path fill="#FEFEFE" d="M735.738 425.188C733.162 423.454 730.444 421.651 729.3 418.607C728.527 416.55 728.749 414.197 729.756 412.26C731.66 408.598 737.607 404.978 741.051 402.883C747.306 399.077 753.949 396.353 760.482 393.111C772.325 387.233 784.511 379.808 797.199 375.976C800.058 375.874 803.533 375.498 806.213 376.638C808.455 377.591 810.089 379.701 810.954 381.928C811.845 384.219 811.693 386.665 810.576 388.849C808.866 392.193 805.627 394.552 802.439 396.368C798.191 398.788 793.434 400.424 788.913 402.272Q777.931 406.766 767.032 411.458C758.664 415.105 750.641 419.98 742.089 423.071C740.01 423.861 737.853 424.495 735.738 425.188Z"/>
	<path fill="#FEFEFE" d="M548.852 423.757C541.436 425.246 531.768 426.206 524.386 424.233C521.428 423.442 518.416 421.931 516.955 419.09C515.726 416.699 515.81 413.537 516.715 411.056C518.082 407.307 521.249 405.771 524.626 404.191C534.133 403.758 543.276 404.171 552.692 405.56C554.371 406.85 556.28 408.478 557.151 410.453C558.102 412.607 558.164 415.178 557.202 417.337C555.605 420.924 552.341 422.493 548.852 423.757Z"/>
	<path fill="#FEFEFE" d="M297.128 425.074C290.785 426.37 277.33 427.237 271.166 425.373C268.199 424.475 265.13 422.537 263.727 419.683C262.632 417.456 262.632 414.985 263.472 412.68C264.916 408.717 267.744 407.051 271.326 405.264C278.347 404.474 290.427 404.015 297.183 405.945C300.5 406.893 304.011 408.93 305.578 412.138C306.47 413.963 306.55 415.95 305.794 417.838C304.315 421.535 300.65 423.707 297.128 425.074Z"/>
	<path fill="#FEFEFE" d="M777.895 454.529C770.468 456.416 752.902 457.675 746.259 454.132C743.578 452.702 741.053 449.997 740.251 447.018Q740.138 446.612 740.068 446.196Q739.999 445.78 739.974 445.359Q739.95 444.938 739.97 444.517Q739.99 444.096 740.055 443.679Q740.12 443.263 740.229 442.855Q740.338 442.448 740.49 442.055Q740.642 441.661 740.835 441.286Q741.027 440.911 741.259 440.559C742.965 437.934 745.303 436.878 748.231 436.125C757.286 435.881 767.36 435.591 776.044 438.49C779.829 439.753 783.759 442.002 785.454 445.818C786.024 447.101 786.119 448.526 785.452 449.801C784.045 452.491 780.545 453.597 777.895 454.529Z"/>
	<path fill="#FEFEFE" d="M802.749 522.732C801.094 523.083 799.504 522.701 797.893 522.293C788.675 519.96 779.983 514.179 771.413 510.093C760.309 504.799 748.736 500.066 738.116 493.844C735.617 492.38 730.29 489.531 729.119 486.844C728.448 485.304 728.333 483.647 728.921 482.06C730.1 478.88 732.462 477.099 735.465 475.822C735.725 475.83 735.986 475.833 736.247 475.848C744.224 476.287 779.134 493.946 788.18 497.933C793.577 500.312 799.566 501.987 804.793 504.646C806.746 505.64 808.571 508.06 810.055 509.669C810.06 511.755 810.215 514.11 809.668 516.133C808.687 519.763 805.804 521.111 802.749 522.732Z"/>
	<path fill="#FEFEFE" d="M658.899 531.823C657.547 532.286 655.663 532.755 654.24 532.609C652.836 532.464 651.352 531.573 650.432 530.526C644.248 523.485 657.705 515.907 659.258 507.593C661.769 494.158 650.742 488.085 652.03 482.519C652.528 480.364 655.439 478.857 657.131 477.806C657.86 477.816 657.91 477.794 658.742 477.934C664.069 478.831 668.401 483.217 671.376 487.475Q671.785 488.067 672.163 488.678Q672.542 489.29 672.889 489.919Q673.236 490.549 673.551 491.195Q673.867 491.842 674.149 492.503Q674.432 493.164 674.68 493.839Q674.929 494.514 675.144 495.2Q675.359 495.887 675.539 496.583Q675.719 497.279 675.863 497.983Q676.008 498.688 676.117 499.399Q676.227 500.109 676.3 500.825Q676.374 501.54 676.411 502.258Q676.448 502.976 676.45 503.696Q676.451 504.415 676.416 505.133Q676.382 505.851 676.311 506.567Q676.24 507.283 676.134 507.994Q676.027 508.705 675.885 509.41C673.894 519.511 667.166 526.33 658.899 531.823Z"/>
	<path fill="#FEFEFE" d="M373.799 513.373C359.287 518.509 357.624 531.91 335.848 536.556C328.718 538.077 321.798 535.991 315.819 532.026C309.626 527.919 302.081 519.881 300.771 512.364C300.299 509.659 300.804 506.715 302.463 504.482C303.616 502.93 305.588 501.32 307.58 501.198C311.077 500.986 316.575 514.172 321.165 517.504C328.466 522.806 341.495 519.463 347.631 513.605C354.075 507.453 355.965 498.628 365.864 496.875C376.922 497.382 383.339 507.258 390.775 514.101C395.657 518.593 401.384 521.457 408.162 520.989C418.616 520.267 421.718 512.191 427.925 505.577C429.501 503.898 431.295 502.452 433.4 501.493C437.136 499.792 449.497 497.147 453.603 497.104C462.242 497.014 467.113 507.998 472.674 513.182C477.117 517.324 482.429 519.695 488.576 519.215C499.43 518.367 502.304 510.541 508.714 503.77C509.997 502.415 511.97 501.149 513.914 501.321C516.431 501.543 518.124 503.71 519.768 505.4C519.889 506.911 519.962 508.404 519.927 509.921C519.759 517.227 516.149 523.82 510.88 528.724C504.695 534.481 495.929 537.343 487.535 536.961C470.092 536.167 463.25 526.532 452.524 514.66C450.71 513.132 448.931 511.294 446.37 511.434C439.624 511.803 434.822 522.27 430.676 526.836C425.421 532.624 418.668 536.82 410.67 537.137C397.213 537.669 388.753 533.378 381.04 522.438C378.925 519.439 376.989 516.23 374.246 513.758C374.1 513.626 373.948 513.501 373.799 513.373Z"/>
	<path fill="#FEFEFE" d="M428.481 566.884C426.178 564.035 423.648 561.082 422.452 557.565C421.602 555.068 421.623 552.469 422.919 550.129C423.851 548.446 425.433 546.619 427.334 546.126C431.418 547.17 433.986 550.379 437.023 553.082C440.069 555.793 443.774 558.083 448.022 557.652C456.361 556.805 461.692 549.908 466.502 543.853C468.581 543.82 470.561 543.982 472.318 545.219C474.376 546.668 475.413 548.815 475.714 551.267C476.332 556.302 474.393 561.257 471.204 565.097C466.463 570.805 458.655 574.35 451.297 574.866C443.148 575.438 434.576 572.208 428.481 566.884Z"/>
	<path fill="#FEFEFE" d="M388.752 564.009C387.064 566.403 385.11 568.524 382.616 570.097C376.522 573.941 367.532 574.131 360.629 572.494C354.047 570.933 348.701 566.229 345.24 560.542C343.269 557.303 341.926 553.658 342.973 549.872C343.673 547.339 345.061 546.568 347.246 545.424C353.334 544.57 356.681 553.559 361.771 556.149C373.268 562 377.701 549.128 384.855 547.187C386.299 546.795 387.833 547.276 389.096 548.004C390.606 548.875 391.553 550.328 391.934 552.008C392.915 556.329 390.894 560.429 388.752 564.009Z"/>
	<path fill="#FEFEFE" d="M415.003 587.794C418.47 585.318 420.935 581.996 424.77 579.919C426.447 579.919 427.897 580.182 429.327 581.096C430.817 582.048 431.704 583.43 431.956 585.181C432.45 588.606 430.607 592.198 428.459 594.732C424.25 599.698 417.659 602.765 411.211 603.214C404.508 603.681 398.859 601.789 393.841 597.357C391.103 594.703 387.312 591.473 386.927 587.443C386.793 586.035 387.237 584.797 388.145 583.72C388.933 582.785 391.23 581.004 392.524 580.985C395.037 580.948 402.393 586.552 405.835 587.531C408.819 588.379 411.952 587.999 415.003 587.794Z"/>
	<path d="M344.161 665.67C332.17 673.402 318.22 681.391 303.376 679.892C294.101 678.956 285.986 673.725 280.229 666.549C269.063 652.632 267.449 631.659 269.396 614.602C270.58 604.225 273.541 594.493 281.987 587.786C283.163 587.801 284.223 588.102 285.254 588.664C290.347 591.436 294.918 595.642 299.523 599.169C304.574 603.036 309.986 606.651 315.409 609.976C332.265 620.313 351.735 626.585 370.283 633.009C365.318 640.851 351.186 660.4 344.161 665.67Z"/>
	<path d="M456.934 632.749C463.867 629.279 471.544 627.542 478.726 624.622C502.388 615.003 519.718 604.476 539.153 587.745C540.803 587.932 542.066 588.533 543.448 589.427C549.253 593.179 551.323 600.153 552.735 606.553C556.572 623.954 557.083 649.897 546.976 665.46Q546.509 666.171 546.008 666.857Q545.506 667.544 544.972 668.206Q544.438 668.868 543.872 669.503Q543.307 670.138 542.711 670.744Q542.115 671.351 541.49 671.928Q540.865 672.505 540.213 673.05Q539.561 673.596 538.883 674.109Q538.205 674.623 537.503 675.102Q536.801 675.582 536.076 676.027Q535.352 676.472 534.606 676.881Q533.861 677.29 533.096 677.663Q532.332 678.035 531.55 678.37Q530.768 678.704 529.971 679Q529.174 679.297 528.364 679.554Q527.553 679.811 526.731 680.028Q525.909 680.245 525.077 680.422C511.385 683.287 497.399 676.268 486.292 669.026C473.164 661.077 462.92 646.61 456.934 632.749Z"/>
</svg>
