<?xml version="1.0" encoding="utf-8" ?>
<svg xmlns="http://www.w3.org/2000/svg" xmlns:xlink="http://www.w3.org/1999/xlink" width="1072" height="1071">
	<path d="M654.843 287.996L592.004 287.98L592.021 304.044L608.037 304.041L608.063 319.967L623.982 319.956L623.993 351.987L640.052 351.979L640.069 384.034C645.359 384.032 650.672 383.938 655.96 384.035L655.983 431.961L672.041 431.955L672.051 463.979L704.017 463.969L704.027 480.01L719.999 479.994L720.034 464L735.979 463.943L735.978 416.069L720.039 416.059L720 399.993L704.021 399.986L704.005 384.067C688.002 383.832 671.967 384.039 655.96 384.035L655.971 368.006L672.03 367.985L672.04 352.014L687.951 351.957L687.961 304.066L655.975 304.054L655.909 291.165L702.585 291.317C702.503 295.497 701.504 302.86 703.682 306.443C709.289 308.436 757.182 307.274 766.67 307.317C766.56 310.837 765.403 319.14 767.817 321.809C770.246 324.493 779.216 323.384 782.588 323.364C782.5 326.914 781.385 334.971 783.684 337.703C786.115 340.592 795.17 339.221 798.68 339.287C798.684 343.531 798.621 347.789 798.849 352.028L767.976 352.021L767.959 336.043L752.052 336.034L752.032 319.996L704.011 319.979L704.03 352.012L687.959 352.024L688.012 367.999L720.022 367.995L720.055 384.031L735.989 384.025L736 399.976L752.051 399.969L752.071 416.049L784.039 416.045L784.04 431.98L752.034 431.979L752.07 480.016L735.979 480.014L736.002 496.04L720.013 496.032C720.022 501.348 719.981 506.668 720.064 511.983L752.055 511.977L752.01 528.064L720.006 528.056L720.064 543.973L704.016 543.977L704.007 496.063L687.995 496.045L687.958 480.022L672.032 480.016L672.053 575.973L687.961 575.972L688.012 592.018L704.016 592.012L704.027 608.008L720.028 608.001L720.057 623.988L752.032 623.971L752.051 592.024L767.958 592.003L767.959 560.056L752.057 560.052L752.063 528.065L767.973 528.041L767.982 543.964L784.031 543.943L784.042 528.059L799.959 528.011L799.983 496.044L816.013 495.97L816.012 480.023L799.986 480.018L799.957 448.052L784.048 448.044L784.04 431.98L816.022 431.956L816.033 463.978L832.015 463.969L832.049 480.009L847.994 480.005L847.986 496.058L831.998 496.031L832.054 511.988L816.016 511.99L815.994 543.968L799.961 543.974C799.973 554.635 799.864 565.314 800.003 575.973L816.013 575.936C816.006 565.418 815.614 554.748 816.183 544.251C824.395 543.605 832.788 543.928 841.026 543.933L879.961 543.942L879.971 511.992L911.957 511.963L911.98 496.04C949.267 495.425 986.655 495.99 1023.95 495.985Q1024.01 488.11 1023.85 480.237C1018.66 479.74 1013.26 480.015 1008.04 480.015L1008.04 463.995L1023.96 463.939L1023.97 448.043L1040.02 448.015L1040.04 435.111Q1047.35 435.285 1054.66 435.357C1054.41 446.136 1055.31 456.89 1055.24 467.694C1051.21 467.587 1047.19 467.494 1043.16 467.566C1043.02 477.394 1044.16 487.428 1044.29 497.313L1071.08 497.272C1071.69 498.352 1071.87 498.944 1071.95 500.211C1072.48 508.55 1072.65 587.395 1071.68 590.308C1071.52 590.8 1071.35 591.03 1071.09 591.503L990.601 591.521C979.917 591.488 969.478 590.207 958.76 590.873C958.105 602.077 958.443 613.484 958.543 624.71C952.641 624.584 947.387 624.469 941.647 626.167Q941.452 648.923 941.604 671.68C936.978 671.692 932.316 671.584 927.696 671.774C927.59 675.751 927.501 679.717 927.552 683.695C921.623 683.695 915.659 683.572 909.735 683.761Q909.461 693.237 909.624 702.715C906.135 702.597 898.535 701.521 895.973 703.995C893.359 706.518 894.546 715.175 894.565 718.72C886.63 718.669 870.528 717.331 863.532 719.734C861.272 722.293 862.562 731.263 862.588 734.772C857.194 734.722 834.147 733.366 830.968 736.227C829.848 740.608 830.566 746.165 830.623 750.696C826.979 750.608 819.099 749.511 816.206 751.759C813.121 754.157 814.461 763.835 814.261 767.511C807.296 767.561 788.437 765.064 783.25 767.877C781.497 771.41 782.475 778.656 782.555 782.693C774.779 782.637 758.411 781.309 751.628 783.671C749.253 786.128 750.404 795.9 750.303 799.544C739.942 799.546 729.55 799.378 719.193 799.633C719.14 804.981 719.134 810.279 719.446 815.623Q710.832 815.519 702.217 815.592Q701.983 823.645 702.525 831.684C686.813 831.505 670.999 831.278 655.293 831.663Q655.126 839.611 655.271 847.559C639.274 847.552 623.257 847.374 607.262 847.571Q607.077 855.608 607.269 863.644Q591.28 863.537 575.29 863.641C575.153 868.963 575.127 874.238 575.402 879.559C540.609 879.517 505.719 880.081 470.936 879.488L390.337 878.705C378.02 878.699 365.623 878.447 353.317 878.846L353.342 865.571L350.764 862.7C342.307 862.697 292.129 861.705 288.529 863.321C287.77 858.269 288.672 853.096 288.069 848.018C284.346 847.666 274.748 848.679 272.017 847.399L272.043 832.007L287.959 831.946L287.971 816.042L319.955 816.012L319.981 799.975C341.322 799.738 362.698 799.958 384.043 799.955L384.068 816.03L416.049 816.027L416.062 831.985L431.97 831.969L431.995 848.006L448.03 848.001L448.042 864.024L511.967 863.973L511.978 816.04L528.037 816.013L528.047 784.057L543.954 784.024L543.973 767.979L560.024 767.954L560.033 736.004L575.966 735.981L575.996 687.98L592.002 687.936L592.007 623.997L608.009 623.972L608.006 560.057L560.041 560.05L560.025 543.989L543.978 543.979L543.956 528.072L528.04 528.052L528.07 543.974L480.007 543.98L480.001 511.993L496.018 511.963L496.038 496.044L511.966 495.968L511.968 416.067L496.05 416.057L496.018 399.994L431.958 399.981L431.963 416.064L399.981 416.058L399.977 399.983L416.034 399.956L416.034 368.014L399.981 368.008L399.965 352.05C394.672 351.891 389.345 352.018 384.048 352.022L384.021 336.044L367.989 336.035L368.01 352.01L336.019 352.014L336.04 368.005L304.041 368.003L304.039 399.986L240.006 399.98L239.945 416.063L224.013 416.055L224.019 431.981L207.963 431.975C207.97 453.309 207.699 474.693 208.003 496.022L224.02 496.007L224.034 511.981L240.025 511.973L240.061 543.974L160.039 543.975L160.071 560.048C155.181 560.046 149.992 560.41 145.145 559.842C140.042 558.848 133.759 559.572 128.532 559.643C128.542 527.937 128.8 496.211 128.416 464.508C133.763 464.272 139.167 464.493 144.519 464.552C144.485 458.927 143.394 437.644 145.311 433.709C149.581 431.463 155.82 432.418 160.543 432.539C160.421 417.235 161.332 401.901 161.388 386.57C166.013 386.289 172.017 387.472 176.367 386.006C178.477 380.422 177.4 346.525 177.416 338.573C182.395 338.285 187.465 338.523 192.454 338.569Q193.695 290.953 193.177 243.323C198.431 243.342 203.699 243.464 208.937 242.996C209.692 237.2 209.365 231.118 209.366 225.271L209.237 195.263C212.242 195.224 215.243 195.448 218.247 195.423C220.149 195.407 222.576 195.286 223.964 193.813C226.429 191.198 225.248 182.826 225.154 179.276Q247.881 179.108 270.607 179.345C270.575 183.8 269.396 189.899 271.76 193.787C275.18 196.506 282.494 195.335 286.68 195.309C286.556 198.92 285.403 206.969 287.753 209.712C290.163 212.524 299.176 211.394 302.588 211.372C302.552 216.658 301.256 239.892 304.011 243.015C308.489 244.073 314.074 243.389 318.671 243.367C318.557 246.909 317.415 255.095 319.76 257.739C322.119 260.399 331.262 259.312 334.577 259.3C334.474 262.845 333.354 271.051 335.708 273.771C338.068 276.499 347.308 275.372 350.641 275.346C350.553 279.599 349.611 286.552 351.342 290.356C351.884 290.548 352.099 290.643 352.626 290.769C359.221 292.338 380.106 291.243 388.184 291.221C396.18 291.2 404.328 291.627 412.3 291.258C413.681 291.194 415.004 291.207 416.212 290.455C418.258 286.544 417.274 279.68 417.187 275.304C422.43 275.325 427.705 275.48 432.93 274.982C434.258 264.811 433.327 253.591 433.232 243.307C436.728 243.255 445.714 244.702 448.133 241.713C450.379 238.938 449.249 230.823 449.161 227.249C452.004 227.194 454.847 227.365 457.691 227.387C459.776 227.402 462.907 227.398 464.295 225.547C466.432 222.699 465.318 214.685 465.242 211.299C470.501 211.327 475.746 211.418 480.99 210.954C481.362 205.742 481.189 200.488 481.143 195.266C483.977 195.225 486.806 195.392 489.64 195.418C491.727 195.438 494.853 195.441 496.253 193.599C498.412 190.76 497.299 182.668 497.226 179.285Q511.911 179.21 526.596 179.342C526.512 183.439 525.507 190.206 526.995 193.887C531.449 196.551 552.324 195.32 558.581 195.308C558.538 201.456 557.261 222.665 559.931 226.943C564.174 228.151 570.187 227.316 574.656 227.296L574.517 257.055C574.507 261.789 574.133 266.855 574.6 271.557C574.737 272.938 574.527 273.405 575.61 274.316L575.884 273.423L575.815 274.405C583.29 276.525 599.845 275.323 608.556 275.31L654.701 275.337C654.562 279.55 654.744 283.782 654.843 287.996ZM224.014 224.031L224.034 256C220.484 255.949 211.127 254.811 208.45 256.971C207.303 267.286 207.956 278.204 207.96 288.581C207.965 304.386 207.742 320.229 208.008 336.028L224.009 336.008L224.019 319.981L239.994 319.937L239.986 304.062L224.021 304.052C223.988 298.759 223.617 293.23 224.22 287.972L255.991 287.963L256.002 304.046L272.03 304.016L272.048 287.978L287.962 287.95L287.961 272.072L272.05 272.051L272.028 256.005L255.994 255.999L255.982 240.054L240.032 240.025L239.991 224.035L224.014 224.031ZM512.902 239.993C511.92 240.79 512.182 240.292 512.035 241.558C511.498 246.204 511.949 251.304 511.994 255.997L479.995 256L480.012 304.045L496.022 304.017L496.043 287.976L528.05 287.964L528.067 304.052L512.574 304.04C510.888 306.436 511.932 316.462 511.991 319.965L560.026 319.935L560.024 272.068L543.976 272.052L543.957 240.051L512.902 239.993ZM1023.95 496.077L1024 511.98L1040.02 511.94C1040.02 506.752 1040.29 501.419 1039.78 496.256C1034.5 495.943 1029.24 496.008 1023.95 496.077ZM673.463 607.988L672.374 608.438C671.189 613.031 672.006 619.192 672.052 623.99L687.213 623.973C689.017 621.715 687.993 611.311 687.962 608.056L673.463 607.988Z"/>
	<path fill="#FEFEFE" d="M224.034 256L224.014 224.031L239.991 224.035L240.032 240.025L255.982 240.054L255.994 255.999L272.028 256.005L272.05 272.051L287.961 272.072L287.962 287.95L272.048 287.978L272.03 304.016L256.002 304.046L255.991 287.963L224.22 287.972C223.617 293.23 223.988 298.759 224.021 304.052L239.986 304.062L239.994 319.937L224.019 319.981L224.009 336.008L208.008 336.028C207.742 320.229 207.965 304.386 207.96 288.581C207.956 278.204 207.303 267.286 208.45 256.971C211.127 254.811 220.484 255.949 224.034 256Z"/>
	<path fill="#FEFEFE" d="M511.994 255.997C511.949 251.304 511.498 246.204 512.035 241.558C512.182 240.292 511.92 240.79 512.902 239.993L543.957 240.051L543.976 272.052L560.024 272.068L560.026 319.935L511.991 319.965C511.932 316.462 510.888 306.436 512.574 304.04L528.067 304.052L528.05 287.964L496.043 287.976L496.022 304.017L480.012 304.045L479.995 256L511.994 255.997Z"/>
	<path d="M929.137 287.985L929.157 275.297C932.584 275.348 940.775 276.428 943.618 274.27C945.418 272.905 945.462 269.907 945.445 267.892C945.42 265.008 945.265 262.126 945.237 259.243C960.372 259.245 975.537 259.042 990.667 259.298C990.485 268.846 990.331 278.463 990.846 288.002C970.302 287.674 949.688 287.983 929.137 287.985Z"/>
	<path fill="#FEFEFE" d="M592.004 287.98L654.843 287.996L655.909 291.165L655.975 304.054L687.961 304.066L687.951 351.957L672.04 352.014L672.03 367.985L655.971 368.006L655.96 384.035C650.672 383.938 645.359 384.032 640.069 384.034L640.052 351.979L623.993 351.987L623.982 319.956L608.063 319.967L608.037 304.041L592.021 304.044L592.004 287.98Z"/>
	<path fill="#FEFEFE" d="M929.137 287.985C949.688 287.983 970.302 287.674 990.846 288.002L991.926 291.175L991.968 319.938L976.036 319.98L976.048 336.035L991.966 336.042L991.981 352.021C996.93 352.024 1001.9 351.937 1006.84 352.041L1007.97 355.279L1008.03 383.991L991.978 384.052L991.968 399.956L976.043 399.981L976.025 416.02L944.012 416.058L943.981 431.964L911.994 431.963L911.955 416.059L928.04 416.056L928.023 384.034L960.012 384.046L959.994 351.983C954.671 351.925 949.34 351.996 944.016 352.011L943.981 367.983L928.029 368.006L928.023 384.034C922.684 383.937 917.322 384.038 911.981 384.05L911.958 399.957L896.06 399.976L896.049 384.025L879.987 384.033L879.962 352.017L896.066 352.015L896.04 336.033L912 336.034L911.958 319.976L928.042 319.98Q927.924 305.512 928.113 291.045L929.137 287.985Z"/>
	<path d="M913.24 291.277Q920.677 291.224 928.113 291.045Q927.924 305.512 928.042 319.98L911.958 319.976L912 336.034L896.04 336.033L896.066 352.015L879.962 352.017L879.987 384.033L896.049 384.025L896.06 399.976L911.958 399.957L911.981 384.05C917.322 384.038 922.684 383.937 928.023 384.034L928.04 416.056L911.955 416.059L911.994 431.963L943.981 431.964L944.044 448.041L928.022 448.041L928.039 463.979L944.008 463.97L944.041 480.014L911.981 480.018L911.957 464.021C906.653 464.007 901.343 463.939 896.04 463.994L896.062 480.016L879.965 480.01L879.972 448.045L896.034 448.014L896.035 431.99L879.98 431.979L879.963 399.994L864.052 399.985L864.024 368.012L799.964 368L799.895 355.115C808.853 355.563 841.297 356.32 848.447 354.454C850.358 351.544 849.21 342.897 849.14 339.249C853.645 339.177 859.541 340.421 863.611 338.216C866.574 334.923 865.302 327.435 865.217 323.297C871.959 323.315 891.002 324.715 896.749 322.078C898.343 319.052 897.263 310.895 897.184 307.279C901.735 307.203 907.43 308.401 911.585 306.262C914.669 302.981 913.353 295.506 913.24 291.277Z"/>
	<path d="M991.926 291.175L1006.6 291.318C1006.54 311.407 1005.58 332.016 1006.84 352.041C1001.9 351.937 996.93 352.024 991.981 352.021L991.966 336.042L976.048 336.035L976.036 319.98L991.968 319.938L991.926 291.175Z"/>
	<path fill="#FEFEFE" d="M767.976 352.021L798.849 352.028L799.895 355.115L799.964 368L784.04 368.006L784.055 384.05L800.008 384.044L799.964 368L864.024 368.012L864.052 399.985L879.963 399.994L879.98 431.979L896.035 431.99L896.034 448.014L879.972 448.045L879.965 480.01L864.045 480.015L864.031 495.975L847.986 496.058L847.994 480.005L832.049 480.009L832.015 463.969L816.033 463.978L816.022 431.956L784.04 431.98L784.039 416.045L800.005 416.056L799.967 399.969L784.046 399.98L784.039 416.045L752.071 416.049L752.051 399.969L736 399.976L735.989 384.025L720.055 384.031L720.022 367.995L688.012 367.999L687.959 352.024L704.03 352.012L704.011 319.979L752.032 319.996L752.052 336.034L767.959 336.043L767.976 352.021Z"/>
	<path fill="#FEFEFE" d="M304.039 399.986L304.041 368.003L336.04 368.005L336.019 352.014L368.01 352.01L367.989 336.035L384.021 336.044L384.048 352.022C389.345 352.018 394.672 351.891 399.965 352.05L399.981 368.008L416.034 368.014L416.034 399.956L399.977 399.983L399.981 416.058L431.963 416.064L431.956 431.941L416.046 431.975L416.052 480.018L431.954 480.022L431.981 511.99L480.001 511.993L480.007 543.98L528.07 543.974L528.04 528.052L543.956 528.072L543.978 543.979L560.025 543.989L560.041 560.05L608.006 560.057L608.009 623.972L592.007 623.997L592.002 687.936L575.996 687.98L575.966 735.981L560.033 736.004L560.024 767.954L543.973 767.979L543.954 784.024L528.047 784.057L528.037 816.013L511.978 816.04L511.967 863.973L448.042 864.024L448.03 848.001L431.995 848.006L431.97 831.969L416.062 831.985L416.049 816.027L384.068 816.03L384.043 799.955C362.698 799.958 341.322 799.738 319.981 799.975L319.955 816.012L287.971 816.042L287.959 831.946L272.043 832.007L272.017 847.399C266.017 845.979 254.579 846.96 247.872 846.964L193.116 847.024C193.096 841.758 193.071 836.508 192.803 831.247C187.591 830.872 182.277 831.091 177.051 831.105C176.809 815.572 176.293 799.534 177.243 784.035L192.057 784.055L192.036 752.049L208.013 752.051L207.979 704.021L192.056 704.028L192.045 672.041L175.987 672.042L175.97 623.983L160.067 623.989L160.054 575.963L144.602 575.977C145.652 571.059 145.097 564.932 145.145 559.842C149.992 560.41 155.181 560.046 160.071 560.048L160.039 543.975L240.061 543.974L240.025 511.973L224.034 511.981L224.02 496.007L208.003 496.022C207.699 474.693 207.97 453.309 207.963 431.975L224.019 431.981L224.021 480.017L239.991 480.022C240.032 490.572 239.541 501.298 240.254 511.819C255.851 512.622 272.209 512.366 287.824 511.824C288.408 501.297 287.973 490.564 287.961 480.015L304.06 480.018L304.04 416.045L320.003 416.056L319.971 399.97L304.039 399.986ZM336.027 480.02L336.017 495.978L319.982 496.042L319.985 511.99L352.012 511.978L368.01 511.987L367.996 480.006L336.027 480.02Z"/>
	<path d="M928.023 384.034L928.029 368.006L943.981 367.983L944.016 352.011C949.34 351.996 954.671 351.925 959.994 351.983L960.012 384.046L928.023 384.034Z"/>
	<path d="M1007.97 355.279L1022.73 355.326Q1022.57 377.054 1022.69 398.782C1018.46 398.689 1011.23 397.588 1007.69 400.008C1005.17 403.604 1006.71 411.888 1006.65 416.269C1001.77 415.881 996.859 416.02 991.965 416.056L991.994 431.974L943.981 431.964L944.012 416.058L976.025 416.02L976.043 399.981L991.968 399.956L991.978 384.052L1008.03 383.991L1007.97 355.279Z"/>
	<path d="M784.04 368.006L799.964 368L800.008 384.044L784.055 384.05L784.04 368.006Z"/>
	<path fill="#FEFEFE" d="M655.96 384.035C671.967 384.039 688.002 383.832 704.005 384.067L704.021 399.986L720 399.993L720.039 416.059L735.978 416.069L735.979 463.943L720.034 464L719.999 479.994L704.027 480.01L704.017 463.969L672.051 463.979L672.041 431.955L655.983 431.961L655.96 384.035Z"/>
	<path fill="#FEFEFE" d="M240.006 399.98L304.039 399.986L304.04 416.045L240.053 416.063L239.992 431.942L224.019 431.981L224.013 416.055L239.945 416.063L240.006 399.98Z"/>
	<path d="M304.039 399.986L319.971 399.97L320.003 416.056L304.04 416.045L304.039 399.986Z"/>
	<path fill="#FEFEFE" d="M431.963 416.064L431.958 399.981L496.018 399.994L496.05 416.057L511.968 416.067L511.966 495.968L496.038 496.044L496.018 511.963L480.001 511.993L479.997 480.013L496.068 480.016L496.041 431.957L480.013 431.965L480.003 416.044L431.963 416.064Z"/>
	<path d="M784.039 416.045L784.046 399.98L799.967 399.969L800.005 416.056L784.039 416.045Z"/>
	<path d="M240.053 416.063L304.04 416.045L304.06 480.018L287.961 480.015C287.973 490.564 288.408 501.297 287.824 511.824C272.209 512.366 255.851 512.622 240.254 511.819C239.541 501.298 240.032 490.572 239.991 480.022L224.021 480.017L224.019 431.981L239.992 431.942L240.053 416.063Z"/>
	<path d="M431.963 416.064L480.003 416.044L480.013 431.965L496.041 431.957L496.068 480.016L479.997 480.013L480.001 511.993L431.981 511.99L431.954 480.022L416.052 480.018L416.046 431.975L431.956 431.941L431.963 416.064Z"/>
	<path fill="#FEFEFE" d="M991.965 416.056C996.859 416.02 1001.77 415.881 1006.65 416.269C1009.99 419.383 1018.4 417.975 1022.88 418.169C1022.91 421.789 1021.86 430.849 1024.53 433.474C1027.26 436.165 1036.27 434.886 1040.04 435.111L1040.02 448.015L1023.97 448.043L1023.96 463.939L1008.04 463.995L1008.04 480.015C1013.26 480.015 1018.66 479.74 1023.85 480.237Q1024.01 488.11 1023.95 495.985C986.655 495.99 949.267 495.425 911.98 496.04L911.957 511.963L879.971 511.992L879.965 480.01L896.062 480.016L896.04 463.994C901.343 463.939 906.653 464.007 911.957 464.021L911.981 480.018L944.041 480.014L944.008 463.97L928.039 463.979L928.022 448.041L944.044 448.041L943.981 431.964L991.994 431.974L991.965 416.056ZM960.059 463.997Q959.965 472.006 960.002 480.016L976.067 480.012L976.044 463.969L960.059 463.997Z"/>
	<path fill="#FEFEFE" d="M752.034 431.979L784.04 431.98L784.048 448.044L799.957 448.052L799.986 480.018L816.012 480.023L816.013 495.97L799.983 496.044L799.959 528.011L784.042 528.059L784.031 543.943L767.982 543.964L767.973 528.041L752.063 528.065L752.057 560.052L767.959 560.056L767.958 592.003L752.051 592.024L752.032 623.971L720.057 623.988L720.028 608.001L704.027 608.008L704.016 592.012L688.012 592.018L687.961 575.972L704.029 575.985L704.017 560.037L687.989 560.05L687.961 575.972L672.053 575.973L672.032 480.016L687.958 480.022L687.995 496.045L704.007 496.063L704.016 543.977L720.064 543.973L720.006 528.056L752.01 528.064L752.055 511.977L720.064 511.983C719.981 506.668 720.022 501.348 720.013 496.032L736.002 496.04L735.979 480.014L752.07 480.016L752.034 431.979Z"/>
	<path d="M960.002 480.016Q959.965 472.006 960.059 463.997L976.044 463.969L976.067 480.012L960.002 480.016Z"/>
	<path d="M336.017 495.978L336.027 480.02L367.996 480.006L368.01 511.987L352.012 511.978L319.985 511.99L319.982 496.042L336.017 495.978Z"/>
	<path d="M864.045 480.015L879.965 480.01L879.971 511.992L847.999 511.991L847.986 496.058L864.031 495.975L864.045 480.015Z"/>
	<path fill="#FEFEFE" d="M831.998 496.031L847.986 496.058L847.999 511.991L879.971 511.992L879.961 543.942L841.026 543.933C832.788 543.928 824.395 543.605 816.183 544.251C815.614 554.748 816.006 565.418 816.013 575.936L800.003 575.973C799.864 565.314 799.973 554.635 799.961 543.974L815.994 543.968L816.016 511.99L832.054 511.988L831.998 496.031Z"/>
	<path fill="#FEFEFE" d="M1024 511.98L1023.95 496.077C1029.24 496.008 1034.5 495.943 1039.78 496.256C1040.29 501.419 1040.02 506.752 1040.02 511.94L1024 511.98Z"/>
	<path d="M687.961 575.972L687.989 560.05L704.017 560.037L704.029 575.985L687.961 575.972Z"/>
	<path d="M144.521 639.612L144.451 597.984C144.44 590.73 144.016 583.19 144.602 575.977L160.054 575.963L160.067 623.989L175.97 623.983L175.987 672.042L192.045 672.041L192.056 704.028L207.979 704.021L208.013 752.051L192.036 752.049L192.057 784.055L177.243 784.035C175.587 779.356 176.498 772.486 176.575 767.516Q168.569 767.442 160.567 767.726C160.586 751.442 161.159 734.949 160.427 718.691Q152.883 718.692 145.339 718.769L145.313 656.43L160.477 656.474Q160.631 648.05 160.451 639.626L144.521 639.612Z"/>
	<path fill="#FEFEFE" d="M672.052 623.99C672.006 619.192 671.189 613.031 672.374 608.438L673.463 607.988L687.962 608.056C687.993 611.311 689.017 621.715 687.213 623.973L672.052 623.99Z"/>
</svg>
