<?xml version="1.0" encoding="utf-8" ?>
<svg xmlns="http://www.w3.org/2000/svg" xmlns:xlink="http://www.w3.org/1999/xlink" width="623" height="449">
	<path fill="#FEFEFE" d="M35.9477 71.0908C35.9074 71.1315 35.8663 71.1713 35.8269 71.2129C35.7614 71.282 35.6983 71.3535 35.6331 71.4229C33.2078 74.0033 31.9522 77.2561 29.797 80.0069C26.0199 84.8277 21.5364 88.7925 17.772 94.0825C15.662 97.0474 14.5851 100.952 11.9246 103.541C11.4529 104 11.3037 103.93 10.6762 103.935C9.52937 102.641 8.25663 92.81 7.83578 90.4596C6.19537 81.2982 6.08696 72.2079 5.94729 62.9395C5.86651 57.5788 5.64179 52.1515 5.95765 46.7972C6.10413 44.3141 6.509 41.8545 6.72679 39.3776C6.97216 36.5871 7.0124 33.6622 7.46758 30.9054C7.83618 28.673 8.85511 26.5298 9.3771 24.3237C10.4352 19.8518 9.21609 18.9571 12.3823 14.4854C17.5258 7.221 27.9126 3.6436 36.3798 2.2237C42.8935 2.52333 49.5179 5.40315 55.6897 7.40989C58.1891 8.22259 60.7651 8.7783 63.2578 9.59517C69.6159 11.6788 76.3596 14.2447 82.4461 17.0047C84.6907 18.0227 86.7777 19.4562 88.9278 20.6602C90.9878 21.8139 93.1489 22.8107 95.2563 23.8758C96.8345 24.6735 99.3549 25.8382 99.9387 27.6208C99.1448 29.1938 93.3712 31.5007 91.7058 32C89.9715 32.5199 88.1713 32.6826 86.4718 33.3476C84.5303 34.1072 82.6795 35.3357 80.8815 36.3875Q70.0396 42.7173 60.1397 50.4377C58.1875 51.944 56.3908 53.6483 54.4385 55.1556C48.0346 60.1001 41.0358 64.7629 35.9477 71.0908Z"/>
	<path fill="#FEFEFE" d="M323.272 70.8868C321.163 68.9114 319.727 66.3779 317.521 64.4805C315.139 62.4321 312.398 60.7652 309.828 58.9605L294.923 48.6328C291.067 46.0003 287.529 43.0171 283.54 40.5477C279.627 38.1248 275.477 35.8632 271.351 33.8274C268.676 32.5078 265.85 31.3623 263.291 29.8264C262.495 29.3487 261.755 28.8991 261.28 28.0764L261.519 27.4645C263.737 25.351 280.367 18.3616 283.681 17.0718C286.39 16.0173 289.173 15.1873 291.867 14.0815C295.225 12.7031 298.458 10.9417 301.867 9.70145C307.828 7.53324 313.826 5.9438 319.916 4.25058C321.486 3.81395 322.865 3.16708 324.493 2.82244C327.514 2.67949 336.902 4.85031 339.454 6.40033C343.007 8.5579 348.806 11.802 349.802 16.1816C350.218 18.0099 349.944 19.9759 350.373 21.8231C350.938 24.2582 352.271 26.4908 352.819 28.944C353.825 33.4452 353.055 38.5601 353.211 43.1666C353.294 45.6219 354.135 47.9451 354.262 50.3763C354.505 55.0183 354.271 59.7692 354.283 64.4234C354.296 69.5746 354.61 74.9061 354.129 80.0273C353.733 84.2443 352.665 88.4832 352.106 92.706C351.706 95.7246 351.671 100.783 350.045 103.363C345.707 101.121 331.717 80.7234 327.635 75.601C326.296 73.9198 324.799 72.3964 323.272 70.8868Z"/>
	<path fill="#FEFEFE" d="M175.294 381.314C172.902 380.964 170.475 380.556 168.064 380.397C164.83 380.185 161.625 380.279 158.413 379.747C153.28 378.897 148.253 377.589 143.199 376.38C140.578 375.753 137.852 375.363 135.281 374.553C128.491 372.414 121.735 369.527 115.125 366.884C111.63 365.486 107.958 364.395 104.558 362.775C101.732 361.429 99.2012 359.493 96.4727 357.961C91.1858 354.992 85.8646 352.221 80.6703 349.066C76.8044 346.718 73.5732 343.921 69.9355 341.275C65.8533 338.305 61.6108 335.556 57.7642 332.273C51.0664 326.556 46.121 319.81 40.6751 312.998C38.6208 310.429 35.761 308.653 33.7976 306.043C30.8161 302.08 28.6679 297.791 26.1971 293.529C24.7103 290.964 23.0187 288.534 21.6141 285.918C17.0629 277.441 13.8468 268.721 10.9788 259.57C10.1376 256.886 9.12759 254.217 8.4486 251.488C7.45821 247.507 7.32579 243.338 6.35773 239.372C5.84387 237.267 4.96444 235.262 4.46475 233.151C2.65567 225.51 3.88721 215.98 3.89615 208.119C3.90047 204.317 3.77113 200.459 4.01082 196.665C4.15582 194.369 4.59087 192.095 4.73191 189.81C4.8467 187.949 4.47563 186.069 4.62189 184.214C5.50458 173.019 9.10479 161.507 12.7138 150.949C14.1456 146.76 15.2314 142.471 17.2106 138.487C18.8986 135.089 21.4832 132.46 23.327 129.217C26.1585 124.238 28.5894 118.775 31.7253 113.99C33.6797 111.007 36.3968 108.649 38.5675 105.848C40.4198 103.458 41.8067 100.708 43.6359 98.2959C46.6865 94.2728 50.6174 90.6999 54.3921 87.3585C57.4453 84.6558 61.9375 81.802 63.9861 78.3868C65.1841 76.3896 67.9152 76.0337 69.6398 74.5376C74.5016 70.3199 79.0039 65.0167 84.4503 61.5107C87.4806 59.5599 91.5207 59.1988 94.7136 57.3837C97.1641 55.9906 99.4821 54.3619 101.942 52.9839C103.873 51.9023 105.936 51.0516 107.835 49.9188C111.68 47.6248 115.655 44.5304 119.878 43.0503C127.645 40.3286 138.304 37.7791 146.413 36.5419C148.623 36.2047 150.881 36.2663 153.09 35.9538C155.224 35.6521 157.264 34.8281 159.406 34.5339C166.832 33.5143 177.728 36.3842 184.255 34.1998C189.234 33.8667 195.031 33.6974 199.969 34.2566C202.415 34.5335 204.842 35.1899 207.267 35.6149C209.095 35.9353 210.95 36.0108 212.788 36.2452C224.492 37.7378 240.457 44.411 251.234 49.5517C254.1 50.919 256.837 52.5324 259.72 53.8814C267.038 57.3049 274.897 60.4615 281.503 65.1575C285.104 67.7174 288.289 70.7755 291.665 73.6119C296.101 77.3391 300.376 81.0661 304.631 84.9937C306.27 86.5064 308.102 87.933 309.577 89.606C312.529 92.9554 314.863 96.8853 317.788 100.279C319.982 102.824 322.637 105.001 324.705 107.651C329.193 113.403 331.663 120.5 335.459 126.626C336.325 128.022 337.509 129.255 338.496 130.569C342.302 135.633 342.893 143.367 344.846 149.291C346.325 153.778 348.883 157.812 350.191 162.331C353.107 172.404 354.282 183.659 355.004 194.11C355.188 196.763 355.141 199.431 355.345 202.079C355.61 205.531 356.428 208.908 356.229 212.386C355.76 220.567 353.909 228.535 352.659 236.603C352.094 240.248 352.031 243.999 351.522 247.671C350.014 258.541 337.832 285.749 331.683 295.436C330.028 298.043 327.457 299.998 325.819 302.634C323.768 305.935 322.722 309.506 320.369 312.723C318.182 315.713 315.357 317.784 312.91 320.491C311.034 322.568 309.595 325.083 307.663 327.092C305.275 329.575 301.768 330.961 299.117 333.165C296.45 335.383 294.09 338.042 291.524 340.383C289.316 342.398 286.8 344.066 284.468 345.934C282.547 347.474 280.778 349.206 278.804 350.681C274.389 353.978 269.442 356.167 264.556 358.624C262.509 359.654 260.604 360.974 258.525 361.934C254.768 363.67 250.771 365.073 246.91 366.566C229.052 373.473 204.651 381.338 185.631 382.177C182.144 382.331 178.734 381.803 175.294 381.314ZM95.0923 106.234C92.1568 106.852 89.3432 107.122 86.353 107.333C84.3833 108.717 82.1913 109.927 80.3933 111.524C76.8412 114.679 71.1839 122.527 70.4262 127.196C69.6882 131.745 71.4263 137.168 68.8227 141.243C73.8776 149.535 82.8103 162.114 92.7595 164.538C95.5927 165.229 98.8199 164.907 101.718 164.724C102.681 164.64 103.721 164.582 104.622 164.21C107.656 162.957 120.218 155.163 122.132 152.938C123.857 150.933 126.7 138.653 126.995 135.464C127.243 132.789 127.159 129.888 126.827 127.219C126.091 121.299 123.582 116.625 118.823 112.984C116.606 111.289 113.338 108.738 110.782 107.731C106.311 105.971 99.846 106.15 95.0923 106.234ZM251.231 106.249C244.302 110.412 237.052 115.858 235.037 124.157C233.482 130.561 233.943 140.082 235.428 146.471C237.689 148.952 240.349 151.056 242.698 153.468C244.201 155.01 244.991 157.279 246.475 158.646C249.02 160.989 257.121 163.295 260.494 163.47C262.709 163.585 265.181 163.576 267.225 162.657C268.1 162.264 268.989 161.705 269.915 161.482C275.139 160.922 282.747 154.527 285.849 150.553C289.229 146.225 290.487 133.431 289.703 127.997C288.842 122.031 284.716 116.828 280.878 112.495C279.942 111.439 278.941 110.07 277.828 109.215C272.434 105.07 258.086 106.201 251.231 106.249ZM199.581 129.137C197.609 129.169 195.673 129.207 193.738 129.639C190.283 130.409 186.901 132.001 183.342 132.116C177.005 132.32 170.712 129.935 164.358 130.067C161.878 131.559 159.659 132.721 158.838 135.74C158.224 137.997 158.897 140.323 160.093 142.263C161.887 145.173 166.908 148.254 166.011 152.11C165.716 153.382 165.052 154.037 163.948 154.681C160.124 156.914 155.722 155.34 151.613 155.136C149.32 155.022 147.024 155.155 144.731 155.136C142.841 159.399 142.427 163.9 144.138 168.332C145.28 171.293 147.5 173.319 150.384 174.562C156.119 177.036 161.668 177.689 167.473 175.314C169.21 174.603 170.83 173.855 172.336 172.714C173.201 172.326 174.25 171.93 174.979 171.321C177.459 169.248 179.822 165.753 183.607 167.057C186.21 167.953 188.191 170.554 190.162 172.386C195.524 177.368 201.978 180.036 208.997 176.892C213.005 175.097 216.801 171.448 218.868 167.649C217.748 164.541 218.068 161.438 217.456 158.262C214.686 156.719 211.648 155.41 208.439 155.25C203.392 154.999 196.061 158.987 193.967 151.776C193.603 150.521 193.453 149.222 193.06 147.973C200.227 142.984 199.23 145.232 205.052 137.906C204.135 135.368 202.972 130.393 200.27 129.271C199.953 129.139 199.988 129.178 199.581 129.137ZM297.105 167.393C294.198 168.239 291.563 168.597 289.126 170.583C287.892 171.589 286.82 172.768 285.526 173.705C284.926 179.128 284.873 182.455 288.469 186.896C289.056 187.621 289.671 188.285 290.365 188.909C299.207 189.165 308.057 188.908 316.9 189.03C320.289 189.064 323.393 188.977 326.016 186.49C327.914 184.691 328.761 182.109 328.776 179.538C328.79 177.117 328.115 175.002 327.354 172.728C321.074 167.112 315.097 167.135 307.098 167.189C303.893 167.211 300.582 167.105 297.392 167.358C297.296 167.366 297.2 167.382 297.105 167.393ZM39.2397 169.222L36.255 170.396C34.6298 172.705 32.6034 174.668 30.9844 176.934C31.5295 179.86 32.0899 182.754 32.2537 185.732C35.4461 189.19 38.2012 191.719 43.1384 191.929C48.045 192.137 52.79 191.523 57.6732 191.227C60.2136 191.074 63.1632 191.358 65.5958 190.592C65.7331 190.549 65.8716 190.51 66.0082 190.465C66.0904 190.437 66.1709 190.405 66.2522 190.376C67.0908 190.119 67.9891 189.811 68.8623 189.722C70.1143 189.594 73.8206 190.128 74.4008 188.975C75.8221 186.151 74.9499 177.35 74.8153 173.991C72.1903 172.46 69.7009 170.931 67.254 169.127C57.9213 169.196 48.5669 169.038 39.2397 169.222ZM212.903 259.262C206.834 261.974 201.216 264.844 196.371 269.479C195.117 270.679 194.68 272.81 193.572 274.224C188.811 280.3 183.386 284.113 175.499 284.418C172.955 284.516 170.404 284.307 168.014 283.376C156.928 279.058 152.515 264.517 138.979 261.24C136.314 260.595 133.55 260.565 131.001 261.676C127.409 263.24 125.28 266.756 122.839 269.639C118.53 274.729 110.892 282.014 104.087 283.041C100.453 283.59 95.8641 282.473 92.4589 281.151C85.6937 278.526 83.9347 270.251 79.8336 264.742C76.7676 265.245 74.4596 265.685 71.718 267.246C69.9349 270.1 68.6062 275.032 69.4295 278.357C71.1456 285.289 81.4779 294.483 86.1777 300.238C96.5908 303.654 106.314 304.816 116.525 299.719C118.739 298.614 120.555 296.995 122.624 295.688C123.946 294.853 125.464 294.901 126.509 293.647C130.509 288.848 133.154 281.365 140.402 280.687C142.115 280.527 144.445 281.132 145.77 282.244C146.402 282.774 146.978 283.403 147.524 284.022C150.798 291.631 150.926 293.737 158.422 297.499C160.385 298.484 162.342 299.679 164.377 300.488C173.635 304.164 183.108 303.781 192.173 299.707C197.568 297.282 204.013 289.581 207.074 284.506C208.467 282.197 209.416 279.452 211.499 277.653C212.956 276.395 214.707 275.877 216.565 276.498C219.765 277.568 225.622 284.011 227.757 286.761C229.233 288.661 230.496 291.035 232.286 292.644C236.348 296.294 241.597 298.547 246.627 300.474C251.487 302.337 254.152 303.481 259.541 303.241C265.507 302.975 270.598 299.655 276.471 298.815C278.823 296.368 281.515 293.935 283.648 291.305C287.207 286.915 289.781 280.791 291.951 275.623C291.357 273.753 290.83 271.949 290.517 270.005C288.437 268.229 286.376 266.454 284.05 265C282.166 265.029 279.888 264.673 278.503 266.166C276.914 267.881 276.42 270.305 275.114 272.197C271.915 276.832 262.655 281.802 257.146 282.164C252.445 282.473 245.849 280.694 242.306 277.47C240.364 275.702 238.875 273.347 237.35 271.225C233.11 265.326 231.441 260.792 223.642 259.682C220.042 259.17 216.529 259.137 212.903 259.262ZM235.381 306.185C233.007 312.24 229.757 315.7 223.778 318.339C220.222 319.908 216.349 321.072 212.58 319.548C207.002 317.291 200.424 307.157 194.736 309.666C193.299 310.3 192.385 311.186 191.844 312.667C191.065 314.799 190.692 317.064 189.954 319.217C192.558 325.884 190.738 329.168 198.001 332.727C201.062 335.367 205.02 340.105 209.173 340.869C210.772 341.163 212.559 340.853 214.193 340.882C217.269 340.935 220.322 341.105 223.399 340.895C228.532 340.546 234.908 338.057 239.223 335.281C239.965 333.746 240.521 332.089 241.337 330.604C245.452 323.112 246.304 322.418 245.871 313.594C242.679 310.118 239.084 308.851 235.381 306.185ZM115.509 309.379C113.211 310.385 111.877 311.904 110.932 314.243C110.084 316.346 110.157 317.996 111.054 320.065C114.444 327.875 117.409 335.197 125.97 338.486C134.182 341.64 142.259 341.298 150.299 337.654C153.026 336.418 154.452 334.671 156.735 332.891C157.545 332.26 158.48 331.815 159.308 331.215C161.749 328.235 162.845 325.151 162.446 321.274C162.114 318.047 160.886 314.214 158.32 312.056C157.177 311.095 155.482 310.346 153.96 310.532C152.038 310.767 150.368 312.111 148.407 312.429C146.819 316.073 144.699 318.839 140.855 320.304C137.98 321.399 134.596 320.988 131.839 319.729C126.179 317.145 122.559 308.331 115.509 309.379ZM162.349 343.985C159.465 345.248 156.576 347.096 155.4 350.179C154.675 352.077 154.902 354.167 155.772 355.973C158.27 361.158 168.283 366.349 173.676 368.173C178.482 369.798 185.256 369.478 189.814 367.202C192.564 365.83 194.734 363.869 197.615 362.645C199.265 361.003 200.947 359.384 202.548 357.696C202.826 356.239 203.079 354.773 203.396 353.325C202.567 351.561 202.166 349.703 201.727 347.814C199.838 345.995 196.924 343.693 194.146 343.837C192.076 343.944 190.703 345.251 189.45 346.747C188.196 348.245 187.169 349.633 185.652 350.896C176.859 351.993 173.117 350.788 166.017 345.799C164.916 345.025 163.724 344.131 162.349 343.985Z"/>
	<path fill="#FEFEFE" d="M367.903 99.8785C366.259 90.4427 367.896 80.6292 368.494 71.0723C368.608 69.2413 368.051 67.6538 368.308 65.7768C377.755 68.8924 376.263 71.9085 382.813 76.6569C383.945 77.4781 385.467 77.9124 386.74 78.4886C388.641 79.3484 390.203 81.0985 391.823 82.3909C393.586 83.7971 395.475 85.0913 397.147 86.6056C400.141 89.3186 402.911 92.4663 405.782 95.3253C410.112 99.6362 414.68 103.867 418.734 108.435C423.191 113.457 427.139 118.897 431.213 124.222C432.924 126.459 434.918 128.529 436.51 130.847C439.867 135.736 443.378 142.5 446.023 147.886C448.596 153.124 451.185 158.764 452.54 164.468C453.2 167.245 453.323 170.165 454.184 172.893C454.791 174.814 455.883 176.555 456.55 178.457C457.412 180.914 457.705 183.725 458.129 186.295C459.492 194.546 460.52 202.534 460.181 210.938C460.034 214.6 459.172 218.196 459.128 221.869C459.055 228.087 459.782 234.527 459.183 240.711C458.932 243.303 457.414 245.696 457.076 248.29C456.739 250.878 457.398 253.714 456.855 256.235C455.324 263.346 451.672 271.266 448.451 277.785C445.333 284.095 437.337 297.906 433.03 303.125C431.371 305.135 428.954 306.425 427.31 308.472C420.048 317.516 412.896 326.552 404.669 334.764C401.972 337.456 398.903 339.73 396.133 342.334C393.772 344.553 391.82 347.177 389.38 349.331C387.069 351.372 384.404 353.113 381.921 354.95C378.602 357.404 375.362 360.014 371.922 362.297C368.375 364.652 364.602 366.676 360.932 368.83C352.456 373.806 346.766 377.184 337.351 380.37C331.088 374.276 332.251 366.816 328.126 359.831C325.319 355.077 320.798 353.187 318.554 347.602C319.076 346.438 319.582 345.205 320.366 344.192C322.412 341.548 325.046 339.603 327.357 337.239C329.33 335.22 330.933 332.963 333.112 331.122C334.813 329.686 336.755 328.576 338.577 327.301C340.942 322.645 342.634 320.128 345.598 315.904C346.429 319.009 347.092 322.152 347.215 325.37C348.649 326.888 349.95 328.4 350.546 330.447C351.002 332.016 350.989 333.846 351.089 335.471C351.377 340.139 351.296 344.997 346.704 347.662C344.921 348.697 342.457 349.057 341.066 350.634C340.139 351.686 340.349 353.552 339.795 354.803C339.271 355.989 338.208 356.909 337.623 358.063C336.83 359.626 336.923 362.584 337.538 364.188C338.109 365.677 339.176 366.889 340.669 367.488C344.778 369.135 356.112 366.477 359.742 364.079C362.703 362.122 363.767 359.866 367.37 358.192C368.169 354.633 369.001 351.101 369.755 347.52C371.303 340.17 375.647 335.892 381.743 331.928L385.293 331.898C392.613 324.673 396.447 320.118 401.313 311.048C402.442 308.944 403.782 306.762 404.426 304.455C406.157 298.248 404.175 283.228 401.075 277.904C398.824 275.902 394.33 270.075 394.185 267.017C393.985 262.778 405.118 260.902 408.692 257.207C412.054 253.733 417.97 246.703 419.391 242.33C420.106 240.132 420.235 237.521 420.467 235.22C420.73 232.624 420.944 229.969 420.654 227.367C420.314 224.329 419.092 221.379 419.077 218.307C419.071 216.987 419.265 215.284 420.127 214.243C421.991 211.993 426.78 210.671 429.372 209.243C431.996 207.797 434.646 205.828 436.733 203.675C438.345 202.013 439.43 199.943 440.473 197.893C445.773 187.472 444.242 176.838 443.942 165.613C443.782 159.67 439.713 155.226 435.585 151.348C433.51 151.073 431.456 150.341 429.439 149.781C427.268 149.177 424.831 148.594 422.765 149.867C421.484 150.655 419.968 152.603 420.157 154.203C420.319 155.582 421.271 157.061 421.902 158.285C425.069 164.415 427.95 169.951 426.062 177.056C425.433 179.419 423.78 181.206 422.528 183.256C420.149 187.148 418.099 191.025 415.451 194.77C414.502 195.214 413.646 195.473 412.59 195.51C407.605 195.682 400.756 190.409 397.263 187.057C394.383 187.16 391.528 187.22 388.647 187.137C386.701 188.838 384.706 190.429 384.181 193.112C382.709 200.632 390.435 205.224 394.914 209.452C396.762 211.197 398.406 213.244 399.762 215.391C403.078 220.637 402.191 226.765 400.806 232.545C399.233 239.112 389.442 252.877 383.708 256.443C380.128 255.391 377.909 254.123 375.181 251.553C374.647 247.091 374.306 241.464 375.24 237.064C375.698 234.906 376.82 233.414 376.859 231.08C377.076 217.981 376.951 204.809 376.873 191.707C376.849 187.593 375.589 182.788 376.678 178.792C378.338 172.702 387.132 173.397 391.732 170.891C393.84 169.743 395.726 167.598 397.635 166.088C399.088 164.94 400.797 164.055 402.4 163.135C403.029 159.536 405.213 156.697 406.832 153.494C410.634 145.968 412.225 135.231 410.138 126.971C409.423 124.144 408.205 121.487 406.937 118.873C403.604 112.001 400.766 108.363 394.995 103.463C393.686 102.351 392.289 100.927 390.793 100.083C387.116 98.0089 382.549 99.4491 378.785 100.513C377.487 104.392 377.006 107.333 377.154 111.429C379.813 115.438 384.361 116.223 387.235 119.693C388.108 120.747 390.265 125.936 390.705 127.32C392.174 131.941 391.705 138.035 389.426 142.322C386.486 147.854 382.439 151.508 377.352 155.001C376.023 155.913 374.646 157.002 373.095 157.482C370.688 156.177 371.091 150.44 370.471 147.981C368.965 142.01 364.476 136.011 361.653 130.523C360.061 127.429 358.909 124.042 357.677 120.79C359.212 117.629 361.274 114.651 362.867 111.486C364.75 107.745 366.193 103.712 367.903 99.8785ZM424.618 242.125C422.973 243.471 421.313 244.944 421.031 247.189C420.504 251.394 424.679 254.995 426.214 258.622C430.25 268.161 426.545 278.943 418.819 285.396Q418.453 285.707 418.067 285.993L418.079 286.369C418.157 289.488 416.554 292.983 419.176 295.564C421.063 297.422 423.796 298.431 426.214 299.4C427.572 298.621 428.963 297.698 430.434 297.168C431.259 296.804 432.005 296.402 432.666 295.778C433.793 294.713 434.537 293.23 435.569 292.059C437.564 289.795 440.028 287.837 441.769 285.371C442.864 283.819 443.746 282.078 444.437 280.312C446.377 275.361 446.846 260.262 444.646 255.412C442.959 251.694 438.738 248.526 438.05 244.545C433.492 241.734 429.784 242.108 424.618 242.125Z"/>
	<path fill="#FEFEFE" d="M622.605 325.151C621.728 326.99 620.861 328.822 619.324 330.209C615.712 333.469 610.593 334.15 606.089 335.468C601.871 336.703 597.911 338.54 593.415 338.241C588.873 337.939 584.347 336.429 579.883 335.551C575.856 334.759 571.636 334.565 567.67 333.537C564.451 332.703 561.628 331.208 558.583 329.932C555.521 328.648 552.354 327.856 549.334 326.412C543.28 323.516 537.753 319.65 531.913 316.36C525.469 312.73 518.058 308.928 512.354 304.258C508.114 300.788 505.557 295.597 501.292 292.093C499.224 290.393 496.582 289.542 494.517 287.855C492.645 286.326 491.131 284.1 489.446 282.348C487.624 280.453 485.497 278.872 483.596 277.06C482.127 275.659 480.862 274.055 479.409 272.648C477.843 271.131 475.585 270.263 474.201 268.572C473.471 267.68 472.857 266.171 473.045 265.006C473.517 262.076 475.388 259.59 476.308 256.81C477.469 253.302 482.429 232.222 482.471 229.159C482.53 224.796 482.586 220.321 482.325 215.966C482.161 213.217 481.664 210.472 481.611 207.717C481.545 204.324 482.17 201.073 481.71 197.645C480.424 188.073 477.537 178.624 475.511 169.176C474.771 165.724 472.628 160.907 473.083 157.468C473.333 155.583 474.551 154.711 475.985 153.692C478.107 152.183 479.316 149.442 481.018 147.47C482.967 145.212 485.208 143.204 487.167 140.952C490.211 137.452 492.997 133.716 496.101 130.268C501.524 124.243 509.585 117.536 515.954 112.399C523.63 106.208 532.4 101.159 540.634 95.7862C544.039 93.5641 547.38 90.566 551.045 88.8384C554.343 87.2837 558.149 85.6206 561.616 84.5138C563.875 83.7928 566.297 83.3275 568.489 82.4343C572.144 80.9452 574.871 78.4964 578.845 77.5615C585.305 76.0419 591.795 76.2828 598.331 75.8483C602.069 75.5998 605.882 74.6 609.632 75.0257C615.761 75.7214 619.097 80.6896 622.603 85.1419C622.802 85.6223 622.941 86.0815 622.966 86.6026C623.226 91.91 623.49 144.825 622.641 146.94C620.321 151.553 618.606 156.488 616.25 161.041C613.274 166.791 609.89 172.954 606.196 178.26C604.668 180.453 602.886 182.483 601.245 184.593C599.597 186.71 598.201 189.046 596.479 191.101C590.806 197.872 583.585 203.282 576.514 208.466C574.898 209.651 573.59 211.291 571.937 212.375C584.855 217.815 595.051 227.501 604.752 237.321C605.905 238.488 607.515 239.393 608.513 240.659C610.784 243.538 615.318 253.827 616.861 257.611C617.605 259.434 618.16 261.442 619.115 263.156C620.214 265.129 621.679 266.891 622.606 268.964C622.842 269.496 622.951 269.961 622.977 270.547C623.232 276.176 623.388 323.203 622.68 324.98C622.657 325.038 622.63 325.094 622.605 325.151ZM567.528 138.259C563.157 139.247 558.859 142.22 554.848 144.213L527.077 158.069C523.861 159.657 520.518 160.632 517.243 162.036C513.911 163.465 510.411 165.587 507.361 167.564C504.934 169.138 500.325 173.636 498.825 176.122C498.025 177.448 497.776 179.82 496.775 180.879C498.887 184.756 501.247 190.354 505.946 191.68C507.16 192.022 508.178 191.854 509.258 191.211C509.583 191.018 509.97 190.762 510.209 190.465C514.613 188.274 519.202 186.689 523.62 184.597C527.195 182.904 528.863 180.569 533.017 179.686C533.879 179.116 534.664 178.378 535.547 177.865C538.575 176.105 542.204 174.985 545.441 173.618C548.341 172.395 551.139 170.945 554.083 169.823C561.639 166.943 573.405 163.544 579.244 157.786C580.762 156.289 581.412 154.265 582.515 152.478C582.688 152.197 582.628 152.289 582.658 151.888C583.288 148.56 581.432 144.1 579.564 141.402C578.287 139.558 576.927 139.083 574.801 138.738C572.382 138.345 569.979 138.109 567.528 138.259ZM513.162 200.315C511.901 201.614 510.612 202.958 508.842 203.525C508.869 203.583 508.899 203.641 508.924 203.701C510.79 208.146 506.53 216.421 513.515 219.493C515.459 220.349 524.602 222.474 526.946 222.728C530.483 223.111 546.337 222.854 549.157 221.549C549.337 221.466 549.587 221.277 549.735 221.173C551.176 220.715 555.971 218.101 556.63 216.871C557.346 215.289 557.031 211.73 556.414 210.137C555.331 207.342 553.017 205.388 550.319 204.206C541.196 200.213 531.699 200.209 521.963 200.195C519.133 200.191 515.956 199.931 513.162 200.315ZM505.979 239.252C505.91 239.29 505.842 239.329 505.772 239.367C505.153 239.699 504.605 239.908 503.928 240.094C501.676 240.712 499.396 242.843 498.281 244.86C497.148 246.908 497.004 249.297 497.652 251.527C499.031 256.279 506.265 260.038 510.359 262.225C517.64 266.116 526.052 268.232 533.62 271.574C539.016 273.956 543.49 277.489 548.661 280.145C550.399 281.037 552.451 281.06 554.25 281.824C558.711 283.72 566.491 288.902 571.21 289.016C573.434 289.129 576.647 287.757 578.169 286.023C578.326 285.844 578.33 285.795 578.407 285.603C579.829 284.395 580.695 281.891 580.843 280.077C581.019 277.913 580.527 272.832 579.305 271.058C578.849 270.186 577.843 269.477 576.99 269.004C574.826 267.804 572.171 267.121 569.848 266.268C566.529 265.049 563.319 263.561 560.015 262.325C557.687 261.454 555.245 260.784 552.975 259.771C549.852 258.378 547.465 255.874 544.474 254.312C538.174 251.022 531.1 248.919 524.531 246.204C522.054 245.179 519.718 243.853 517.255 242.807C515.037 241.864 512.682 241.142 510.415 240.313C509.501 239.979 508.459 239.341 507.543 239.132C507.147 239.041 506.774 239.128 506.387 239.193C506.251 239.216 506.115 239.232 505.979 239.252Z"/>
	<path fill="#FEFEFE" d="M98.9384 146.324C96.4076 145.951 93.2599 144.928 91.154 143.457Q90.7657 143.19 90.4062 142.885Q90.0467 142.58 89.7197 142.241Q89.3927 141.901 89.1015 141.531Q88.8102 141.16 88.5577 140.762Q88.3052 140.364 88.094 139.943Q87.8828 139.521 87.7151 139.081Q87.5473 138.64 87.4247 138.185Q87.302 137.73 87.2258 137.265C86.6731 133.902 88.0781 131.03 89.9581 128.35C93.8962 122.737 94.1875 124.675 100.257 123.617C100.802 123.449 101.19 123.395 101.752 123.497C104.563 124.007 107.674 124.928 109.278 127.486C110.925 130.114 111.727 135.687 111.06 138.689C110.479 141.308 108.478 143.441 106.273 144.851C104.009 146.299 101.562 146.885 98.9384 146.324Z"/>
	<path fill="#FEFEFE" d="M255.992 124.256Q258.645 123.913 261.306 123.63C261.572 123.56 261.847 123.498 262.122 123.482C266.65 123.212 270.857 127.121 273.927 129.954C273.32 132.374 273.109 133.854 273.758 136.293C273.413 137.341 273.037 138.35 272.534 139.334C270.315 143.674 266.843 145.696 262.302 147.144C261.32 147.276 260.205 147.406 259.218 147.308C256.074 146.996 252.621 143.318 250.872 140.953C249.411 138.978 248.917 136.949 249.286 134.519C249.943 130.19 252.509 126.781 255.992 124.256Z"/>
	<path fill="#FEFEFE" d="M370.915 318.712C370.485 318.995 369.789 319.204 369.284 319.272C366.355 319.67 363.272 313.219 360.879 311.571C358.825 310.157 356.167 309.711 354.165 308.118C353.437 307.539 353.159 306.888 353.098 305.972C352.827 301.844 355.208 301.108 356.871 298.009C358.013 295.884 358.888 293.559 359.885 291.36C361.059 288.768 362.472 286.222 363.491 283.57C365.006 279.629 364.486 276.797 367.491 273.428C371.086 274.599 380.128 279.193 382.214 282.161C383.807 284.43 383.767 286.207 385.939 288.887C386.633 293.264 386.811 296.483 384.183 300.199C384.292 304.052 382.842 307.397 380.98 310.723C378.763 314.682 375.285 317.457 370.915 318.712Z"/>
	<path fill="#FEFEFE" d="M111.308 430.154C109.513 431.15 107.523 431.796 105.695 432.748C103.036 434.133 100.636 435.942 97.9217 437.247C92.3077 439.945 78.6395 444.28 72.5399 442.955C70.2785 442.464 68.1699 441.344 66.0612 440.417C58.5275 437.103 51.7286 433.472 47.2153 426.279C45.6439 423.774 44.5991 420.991 43.5174 418.252C40.1652 409.761 39.1628 402.737 39.1412 393.655C39.121 385.119 39.5244 381.198 41.4188 372.919C42.7441 367.126 44.4436 364.511 48.0431 359.925C49.6026 357.939 50.7212 356.378 52.9019 355.007C53.4383 354.945 53.96 354.908 54.5002 354.951C55.6855 355.045 56.7464 355.551 57.73 356.195C62.2041 359.12 66.2748 363.111 70.3354 366.583C71.9271 367.944 73.7203 369.023 75.3986 370.269C77.4272 371.774 79.2813 373.489 81.3721 374.918C84.0321 376.736 87.1581 377.978 90.0896 379.292C95.2468 381.603 100.544 383.674 105.665 386.045C108.644 387.425 111.415 389.226 114.442 390.508C117.182 391.669 119.854 391.629 122.672 392.412C124.952 393.046 136.196 397.591 137.208 399.037C137.403 399.316 137.329 399.326 137.223 399.696C137.016 400.416 136.544 401.073 136.107 401.674C134.412 404.007 132.326 406.055 130.623 408.388L122.92 418.89C121.094 421.432 119.351 424.314 117.164 426.544C115.604 428.135 113.255 429.135 111.308 430.154Z"/>
	<path fill="#FEFEFE" d="M256.568 432.591C248.447 427.937 240.814 420.558 235.935 412.57C233.532 408.637 233.343 406.671 230.081 402.663C229.094 401.45 227.961 400.316 228.135 398.676C228.741 397.674 229.386 397.196 230.439 396.696C232.862 395.548 235.86 395.425 238.418 394.568C240.559 393.85 242.589 392.722 244.668 391.838C247.039 390.829 249.479 390.057 251.92 389.24C254.68 388.316 257.051 386.92 259.649 385.655C264.908 383.095 270.011 380.472 275.178 377.737C278.928 375.751 282.728 374.433 286.23 371.913C287.606 370.923 288.578 369.492 289.955 368.501C292.801 366.453 295.966 364.732 298.699 362.545C302.642 359.388 303.162 357.042 308.437 355.077C310.455 354.796 312.674 354.74 314.535 355.704C318.213 357.609 318.697 363.693 319.584 367.241C320.082 369.234 320.825 371.26 321.041 373.306C321.281 375.574 321.015 377.947 321.37 380.19C321.623 381.792 322.356 383.412 322.778 384.987C323.552 387.877 323.284 391.564 323.276 394.55C323.247 405.615 322.825 417.626 317.094 427.464C315.898 429.517 314.45 431.768 312.7 433.399C311.505 434.513 309.604 435.102 308.18 435.914C307.117 436.52 306.206 437.426 305.168 438.093C303.702 439.035 302.037 439.669 300.515 440.519C297.814 442.028 295.192 444.182 292.15 444.939C289.009 445.722 286.113 444.738 283.067 444.051C280.354 443.439 277.577 443.088 274.899 442.319C268.077 440.361 262.517 436.27 256.568 432.591Z"/>
</svg>
