<?xml version="1.0" encoding="utf-8"?>
<svg xmlns="http://www.w3.org/2000/svg" viewBox="0 0 512 512">
  <path d="M242.948 418.983C243.88 418.145 244.879 417.361 246.036 416.855C247.193 416.349 248.57 416.349 249.993 416.349C251.416 416.349 252.839 416.349 254.262 416.855C255.685 417.361 256.684 418.145 257.616 418.983C258.548 419.821 259.056 420.833 259.056 422.019C259.056 423.205 258.548 424.217 257.616 425.055C256.684 425.893 255.685 426.677 254.262 427.183C252.839 427.689 251.416 427.689 249.993 427.689C248.57 427.689 247.193 427.689 246.036 427.183C244.879 426.677 243.88 425.893 242.948 425.055C242.016 424.217 241.508 423.205 241.508 422.019C241.508 420.833 242.016 419.821 242.948 418.983Z" fill="#FF5722"/>
  <path d="M249.993 428.747C248.57 426.55 246.85 423.895 244.574 421.745C242.948 418.983 240.672 416.349 238.396 413.715C236.12 411.081 233.844 408.447 231.568 405.813C229.292 403.179 227.016 400.545 224.74 397.911C222.464 395.277 220.188 392.643 217.912 390.009C215.636 387.375 213.36 384.741 211.084 382.107C208.808 379.473 206.532 376.839 204.256 374.205C201.98 371.571 199.704 368.937 197.428 366.303C195.152 363.669 192.876 361.035 190.6 358.401C188.324 355.767 186.048 353.133 183.772 350.499C181.496 347.865 179.22 345.231 176.944 342.597C174.668 339.963 172.392 337.329 170.116 334.695C167.84 332.061 165.564 329.427 163.288 326.793C161.012 324.159 158.736 321.525 156.46 318.891C154.184 316.257 151.908 313.623 149.632 310.989C147.356 308.355 145.08 305.721 142.804 303.087C140.528 300.453 138.252 297.819 135.976 295.185C133.7 292.551 131.424 289.917 129.148 287.283C126.872 284.649 124.596 282.015 122.32 279.381C120.044 276.747 117.768 274.113 115.492 271.479C113.216 268.845 110.94 266.211 108.664 263.577C106.388 260.943 104.112 258.309 101.836 255.675C99.56 253.041 97.284 250.407 95.008 247.773C92.732 245.139 90.456 242.505 88.18 239.871C85.904 237.237 83.628 234.603 81.352 231.969C79.076 229.335 76.8 226.701 74.524 224.067C72.248 221.433 69.972 218.799 67.696 216.165C65.42 213.531 63.144 210.897 60.868 208.263C58.592 205.629 56.316 202.995 54.04 200.361C51.764 197.727 49.488 195.093 47.212 192.459C44.936 189.825 42.66 187.191 40.384 184.557C38.108 181.923 35.832 179.289 33.556 176.655C31.28 174.021 29.004 171.387 26.728 168.753C24.452 166.119 22.176 163.485 19.9 160.851C17.624 158.217 15.348 155.583 13.072 152.949C10.796 150.315 8.52 147.681 6.244 145.047C3.968 142.413 1.692 139.779 0 137.145" fill="#FF5722"/>
</svg>
