<?xml version="1.0" encoding="utf-8" ?>
<svg xmlns="http://www.w3.org/2000/svg" xmlns:xlink="http://www.w3.org/1999/xlink" width="638" height="637">
	<path d="M26.6294 39.7426C25.6862 40.5761 24.8164 41.5075 23.9092 42.3821L23.859 42.0631C25.5223 39.3108 26.3935 36.2869 28.4348 33.7386C33.0406 27.9888 42.1507 23.9195 49.3805 23.1341C49.4025 23.1317 49.4245 23.1281 49.4467 23.1268C61.5315 22.3776 105.768 39.8384 115.141 47.4892C109.659 51.2238 104.806 51.2371 99.4266 54.0256C86.445 60.7542 74.5403 70.3209 63.2056 79.4889C58.8654 82.9994 54.4045 86.1166 50.9285 90.5275C48.5299 93.2849 46.7685 96.3801 44.6343 99.3205C42.9828 101.596 34.1871 112.159 32.354 113.258C30.6349 117.463 28.5243 120.868 25.9138 124.544C24.8962 121.464 24.5191 118.294 24.0091 115.109C23.0389 109.049 22.1068 103.079 21.6495 96.9517C21.2903 92.1389 21.4414 87.2363 21.4305 82.4121C21.4183 76.9656 21.2252 71.4463 21.4963 66.0125C21.6371 63.1908 22.1089 60.368 22.3787 57.5523C22.6715 54.4971 22.8756 51.3879 23.5192 48.383C24.1743 45.3238 25.2749 42.5523 26.6294 39.7426Z"/>
	<path d="M339.049 91.1598C337.029 89.1421 335.441 86.7107 333.325 84.7945C330.907 82.606 328.095 80.8284 325.446 78.9346C320.801 75.6132 316.215 72.3195 311.484 69.1195C305.591 65.1337 300.014 60.9295 293.863 57.3179C289.259 54.6146 279.603 51.0587 276.449 48.1994L276.486 47.7416C278.862 45.7527 282.227 44.6308 285.052 43.3796C289.241 41.5244 293.402 39.5469 297.658 37.8513C300.604 36.6781 303.638 35.7374 306.575 34.5395C311.327 32.6011 315.821 30.3587 320.719 28.7559C323.382 27.8846 326.067 26.9066 328.76 26.1442C331.734 25.302 334.77 25.0633 337.584 23.6817C337.732 23.609 337.879 23.5332 338.026 23.4589C341.971 22.9617 351.562 25.1563 355.022 27.1481C357.999 28.8616 363.248 32.3157 364.103 35.8232C364.509 37.4885 364.359 39.2471 364.786 40.9344C365.37 43.2385 366.524 45.4042 367.09 47.7147C368.102 51.8452 367.463 56.6465 367.62 60.887C367.734 63.9661 368.283 67.022 368.449 70.1004C368.74 75.4995 368.558 81.0086 368.563 86.4215C368.568 90.9429 368.8 95.6078 368.457 100.114C368.145 104.21 367.084 108.332 366.578 112.43C366.179 115.662 366.306 120.218 364.663 122.981C362.943 121.307 361.511 119.34 359.979 117.495C357.664 114.706 355.192 111.977 353.039 109.064C348.543 102.98 344.431 96.5197 339.049 91.1598Z"/>
	<path d="M352.925 301.825C352.823 302.76 352.734 303.74 352.375 304.618C351.427 306.936 347.111 313.973 345.549 316.095C343.983 318.225 342.058 320.155 340.62 322.367C338.215 326.065 336.803 330.137 334.098 333.745C332.216 336.257 329.584 337.828 327.523 340.123C325.863 341.971 324.881 344.292 323.035 346.022C320.095 348.779 316.671 350.745 313.609 353.317C305.91 359.784 298.13 367.776 289.519 373.044C269.063 385.559 217.577 404.06 194.093 401.369C190.629 400.973 187.183 400.395 183.712 400.066C177.467 399.473 171.64 399.187 165.48 397.776C162.406 397.072 155.993 394.427 153.254 395.242C152.83 395.368 152.663 395.302 152.247 395.178C148.528 394.065 144.853 392.148 141.169 390.82C137.037 389.33 133.084 387.64 129.009 386.024C125.754 384.734 122.401 383.623 119.233 382.123C116.251 380.711 113.618 378.734 110.749 377.13C105.137 373.992 99.4686 371.208 94.0192 367.742C91.209 365.954 88.7236 363.719 86.0704 361.717C83.0662 359.449 79.9092 357.419 76.9485 355.082C72.4479 351.529 68.1054 347.265 64.1579 343.107C61.1718 339.962 58.826 336.182 56.0478 332.851C54.0238 330.424 51.4925 328.465 49.4664 326.026C46.2437 322.146 44.2525 318.146 41.7955 313.823C40.3698 311.315 38.7258 308.941 37.3496 306.402C34.0164 300.252 30.8136 292.738 28.5348 286.087C27.8372 284.05 27.364 281.939 26.6948 279.893C25.6079 276.57 24.3636 273.328 23.5634 269.915C22.6813 266.154 22.6826 262.155 21.7566 258.458C21.218 256.308 19.9935 254.264 19.6562 252.075C18.7495 246.189 19.2332 240.163 19.2942 234.242C19.3514 228.698 19.1047 223.097 19.362 217.562C19.9088 205.799 21.8315 192.368 25.1944 181.079C26.1383 177.91 27.3659 174.829 28.4169 171.695C29.8126 167.533 31.0297 163.23 32.8183 159.221C34.5412 155.358 36.9802 151.991 39.0552 148.328C45.8981 136.25 53.1965 124.104 62.7921 113.95C66.3189 110.218 70.3852 106.834 74.2881 103.506C75.4423 102.522 76.6763 101.56 77.7559 100.495C79.4521 98.8225 79.8477 97.5557 82.117 96.3531C85.4713 94.5757 87.6823 91.8047 90.4915 89.3388C93.1907 86.9694 96.1471 84.4988 99.0226 82.3398C100.624 81.1373 102.341 80.5299 104.194 79.8551C106.102 79.1605 108.127 78.5462 109.938 77.6272C118.125 73.4726 126.233 66.8909 134.963 64.0132C147.798 59.7827 162.059 56.8851 175.524 55.6929C178.404 55.4378 196.248 55.949 197.209 55.3633C197.771 55.0211 198.245 54.6687 198.91 54.5674C202.445 54.0287 212.552 54.3318 216.167 54.8513C217.946 55.1069 219.565 55.9473 221.337 56.2342C227.433 57.2215 231.802 57.4779 238.03 59.1802C249.88 62.4191 260.595 67.731 271.655 72.9004C279.872 76.7403 288.112 80.2609 295.743 85.2535C303.177 90.1175 312.174 98.4844 318.575 104.663C320.608 106.626 322.833 108.442 324.743 110.525C327.41 113.435 329.696 116.73 332.279 119.721C335.027 122.902 337.971 125.86 340.37 129.332Q344.021 134.709 347.103 140.432C348.123 142.347 348.969 144.386 350.06 146.255C351.384 148.523 353.441 150.186 354.569 152.627C357.125 158.16 357.774 164.498 359.731 170.222C361.317 174.864 364.078 178.81 365.09 183.693C364.911 183.987 364.666 184.25 364.554 184.576C364.187 185.643 366.318 194.561 366.512 196.51C367.077 202.177 367.962 207.892 368.385 213.558C368.606 216.527 368.401 219.513 368.607 222.48C368.785 225.03 369.272 227.563 369.379 230.116C369.572 234.736 368.556 239.366 369.152 243.985C368.294 248.152 367.476 252.41 366.985 256.637C366.377 261.877 366.173 267.016 365.02 272.208C363.507 279.02 360.228 286.006 357.389 292.359C355.789 295.939 355.476 298.608 352.925 301.825ZM248.928 147.515C247.058 149.504 247.284 154.985 247.378 157.619C247.433 159.162 247.585 160.584 248.131 162.04C248.843 162.11 248.544 162.141 249.031 162.045C249.615 163.34 249.502 164.913 250.2 166.214C251.475 168.594 254.125 170.399 256.026 172.287C257.667 173.918 258.816 175.97 260.365 177.674C263.038 180.613 268.216 182.702 271.999 183.681C278.443 185.349 285.443 182.945 290.991 179.695C294.545 177.614 301.058 172.554 302.556 168.741C303.328 166.777 304.112 162.574 304.689 160.231C306.623 152.381 304.975 144.368 300.76 137.598C297.309 132.053 292.779 127.87 286.29 126.444C281.552 125.402 271.75 124.958 267.208 125.964C265.428 126.359 263.757 127.241 262.238 128.231C254.865 133.032 250.71 138.948 248.928 147.515ZM112.092 125.673C103.092 126.568 98.4456 126.778 92.3737 134.133C84.3263 143.882 84.4809 146.059 84.7686 158.138C84.7982 159.38 84.5851 159.628 83.4899 160.252C84.3087 165.373 94.9055 176.995 99.4343 180.28C104.753 184.138 107.339 185.405 113.999 185.255C115.41 185.209 116.903 185.215 118.268 184.825C123.932 183.206 132.678 177.975 136.753 173.596C141.264 168.749 142.878 155.997 142.5 149.523C142.135 143.253 140.018 137.894 135.233 133.694C133.408 132.091 127.524 127.902 125.4 127.12C121.727 125.767 116.011 125.697 112.092 125.673ZM335.33 133.571L334.117 134.843L334.224 135.093C334.403 135.129 334.583 135.161 334.761 135.202C336.312 135.562 337.806 137.202 338.587 138.526C340.275 141.388 338.794 142.86 341.907 145.535L342.739 145.852L343.156 145.63C343.172 142.059 337.887 136.531 335.792 133.726L335.33 133.571ZM211.711 148.682C207.488 149.257 203.534 151.21 199.338 151.475C193.293 151.858 183.528 148.652 178.631 150.218C177.051 150.723 175.319 151.968 174.04 153.024C173.411 156.679 173.149 159.9 175.394 163.107C176.84 165.171 181.632 168.988 180.997 171.684C180.646 173.172 178.859 174.189 177.581 174.755C176.705 175.143 175.798 175.452 174.887 175.748C169.388 174.516 165.007 174.34 159.395 174.852C157.483 179.377 156.935 183.575 158.798 188.232C160.159 191.635 162.887 193.973 166.231 195.345C171.53 197.519 177.245 197.935 182.565 195.652Q186.15 194.089 189.547 192.152C191.872 190.32 194.846 186.297 198.202 186.968C203.066 187.939 207.285 199.277 218.311 198.542C220.818 198.375 223.232 197.726 225.429 196.489C228.232 194.91 233.015 191.261 233.789 188.053C233.925 187.492 233.338 181.075 233.148 180.263C232.963 179.476 232.634 178.735 232.145 178.09C230.51 175.933 227.158 175.144 224.582 174.87C220.598 174.446 216.718 175.821 212.721 175.778C210.606 174.353 208.982 172.548 208.505 169.925C208.374 169.208 208.353 168.606 208.815 168.019C210.324 166.101 213.666 165.605 215.537 164.005C217.461 162.36 218.722 159.973 220.34 158.045C219.5 154.635 218.438 151.962 216.339 149.123C214.787 148.896 213.284 148.684 211.711 148.682ZM313.915 186.711C309.17 187.358 303.736 188.75 300.707 192.801C299.216 194.796 299.117 197.39 299.528 199.761C300.24 203.872 302.604 206.587 305.504 209.357L330.266 209.37C334.222 209.436 338.312 209.664 341.402 206.676C343.5 204.646 344.167 201.755 344.137 198.926C344.114 196.817 343.6 194.763 343.123 192.721C341.148 191.144 339.297 189.669 336.973 188.624C330.353 185.649 321.069 186.545 313.915 186.711ZM55.1469 188.798C53.8034 189.209 52.4327 189.582 51.1263 190.099C49.3592 192.334 47.5664 194.868 45.401 196.73C46.291 199.709 46.6253 202.396 46.7029 205.496C50.8448 209.611 53.7142 212.36 59.9335 212.338C65.7756 212.317 75.2742 211.902 80.9189 211.005C83.8877 210.621 86.9039 210.327 89.8387 209.735C90.6449 204.427 90.7048 199.15 90.2583 193.805C87.7351 191.992 84.8606 190.649 82.4283 188.776C73.3789 188.627 64.1836 188.379 55.1469 188.798ZM228.048 278.817C222.504 281.504 216.877 283.979 212.258 288.162C209.82 290.37 208.404 293.239 206.407 295.8C200.857 302.918 192.013 305.926 183.367 302.812C174.712 299.695 168.151 287.73 159.716 283.009C157.106 281.548 153.973 280.815 151.113 279.972C148.826 280.554 146.296 280.866 144.309 282.199C141.015 284.407 138.691 288.201 136.06 291.125C131.995 295.643 125.717 301.419 119.552 302.551C117.24 302.976 114.686 302.632 112.393 302.209C110.08 301.782 107.653 301.093 105.636 299.859C99.5771 296.156 98.5474 283.119 91.7733 284.652C89.802 285.098 87.8929 286.176 86.2113 287.264C84.6423 290.148 82.9237 295.459 83.9631 298.679C85.3456 302.962 97.482 318.611 101.633 320.654C110.285 324.912 120.61 324.205 129.417 320.936C133.449 319.439 139.673 315.923 142.538 312.788C148.905 305.82 147.954 301.09 159.502 301.228C160.597 302.263 161.659 303.222 162.501 304.484C162.949 306.086 163.673 307.304 164.409 308.762C166.531 312.965 168.144 315.173 172.32 317.5C181.328 322.519 189.999 325.395 200.157 322.448C203.597 321.45 207.509 320.438 210.384 318.233C213.878 315.554 217.188 311.671 219.896 308.225C222.428 305.004 227.22 294.578 232.535 297.21C236.535 299.191 242.95 308.282 246.137 311.661C251.307 317.144 262.178 322.751 269.728 323.661C272.893 324.042 276.307 323.676 279.36 322.789C282.65 321.832 288.538 320.308 291.414 318.731C296.021 316.206 300.285 310.158 302.762 305.619C304.155 303.068 307.118 297.967 306.961 294.979C306.88 293.443 306.183 291.914 306.043 290.318C303.981 288.061 302.024 286.374 299.435 284.745L294.271 284.668L293.936 285.039C291.747 287.501 290.392 290.427 288.411 293.008C285.041 297.4 277.601 301.289 272.112 301.683C267.518 302.013 261.315 300.423 257.902 297.271C256.054 295.563 254.702 293.425 253.271 291.374C246.117 281.124 243.639 278.405 230.272 278.71Q229.159 278.739 228.048 278.817ZM250.279 325.907C248.121 331.328 244.297 335.601 238.921 337.95C235.222 339.566 231.67 339.943 227.677 339.53C224.13 336.956 218.437 331.452 215.033 329.718C213.844 329.113 212.38 328.724 211.044 328.935C209.713 329.145 208.471 329.966 207.354 330.682C206.013 333.278 205.595 336.074 204.641 338.815C207.442 346.377 205.479 348.54 213.255 353.461C220.928 359.774 220.362 361.402 230.631 361.298C233.37 361.27 236.196 361.447 238.92 361.176C243.858 360.684 251.447 358.318 254.697 354.422C257.383 351.204 260.829 344.027 261.387 339.935C261.658 337.948 261.473 335.848 261.399 333.851C258.063 329.418 254.816 328.536 250.279 325.907ZM132.095 328.734C130.49 329.121 129.286 329.651 127.844 330.438C126.245 332.829 125.221 335.111 124.64 337.96C124.711 338.049 124.783 338.138 124.851 338.229C126.871 340.909 127.641 344.411 129.008 347.438C132.407 354.958 140.308 359.932 148.316 361.059C154.099 361.873 163.772 359.902 168.45 356.263C169.843 355.179 170.955 353.825 172.422 352.819C175.261 351.013 176.946 348.677 177.704 345.36C178.521 341.786 178.075 337.643 176.096 334.51C174.47 331.933 172.431 330.7 169.624 329.701C168.534 330.186 163.853 331.663 163.418 331.959C162.826 332.361 162.245 334.088 161.897 334.786C158.427 341.735 152.122 340.21 145.957 339.495C143.905 336.495 136.89 329.682 133.415 328.939C132.979 328.846 132.538 328.788 132.095 328.734ZM177.525 363.514C174.446 364.934 171.483 366.613 170.177 369.951C169.512 371.65 169.515 373.327 169.544 375.117C170.594 376.436 171.514 377.959 172.697 379.15C177.157 383.639 185.145 388.583 191.522 389.324C201.246 390.452 204.53 387.702 212.313 383C214.906 381.096 217.876 378.734 218.407 375.371C218.821 372.751 217.896 370.184 217.275 367.668C214.852 365.226 212.229 363.746 208.706 363.731Q207.564 363.731 206.422 363.769C204.431 365.897 202.99 368.412 200.777 370.323L200.44 370.62C200.372 370.679 200.302 370.735 200.233 370.793C196.729 370.55 193.007 371.066 189.589 370.169C185.478 369.091 180.482 363.936 177.525 363.514Z"/>
	<path d="M390.572 256.833C391.112 255.752 391.739 254.606 391.953 253.407C392.851 248.37 392.302 242.511 392.29 237.383C392.269 228.19 392.358 218.979 392.201 209.788C392.143 206.35 391.275 202.534 392.086 199.169C392.605 197.02 393.42 195.591 395.606 194.896C399.209 193.749 402.907 193.064 406.363 191.438C408.848 190.269 411.01 187.788 413.195 186.133C414.67 185.015 416.309 184.143 417.813 183.074C418.956 178.853 421.359 175.793 423.02 171.836C428.844 157.965 427.13 146.231 419.735 133.512C416.901 128.638 409.01 120.392 403.486 118.945C400.777 118.235 397.307 118.323 394.89 119.863C393.203 120.937 392.361 122.802 391.971 124.702C391.518 126.911 391.601 129.216 391.72 131.455C394.68 135.406 398.381 136.216 401.369 139.515C403.144 141.477 404.116 144.694 405.55 146.983C405.702 157.131 405.999 161.921 398.569 169.568C395.49 172.736 391.441 174.696 388.322 177.774C385.602 172.91 386.914 169.459 384.946 164.845C383.167 160.674 380.266 156.888 378.179 152.849C376.186 148.991 374.802 144.846 372.936 140.927C373.864 138.695 375.681 137.295 376.654 135.145C378.792 130.422 381.663 125.239 382.973 120.242C383.593 117.876 382.314 114.705 382.36 112.209C382.417 109.206 382.948 106.139 383.177 103.138C383.473 99.2453 383.428 95.4783 383.947 91.5975C384.18 89.8502 382.642 88.3576 383.277 86.5505C383.68 86.187 383.609 86.085 384.093 86.1142C384.978 86.1677 385.882 86.8751 386.637 87.3243C388.015 88.145 389.34 88.7947 390.581 89.849C393.788 92.5727 396.246 96.9041 400.377 98.1713C402.821 98.9211 405.413 101.561 407.396 103.189C422.137 115.29 434.911 129.506 446.391 144.683C447.936 146.725 449.676 148.633 451.143 150.732C454.524 155.566 457.536 161.335 460.212 166.594C463.131 172.331 465.781 178.576 467.291 184.846C467.775 186.856 467.836 188.976 468.378 190.965C469.188 193.93 470.516 196.75 471.333 199.719C473.987 209.362 474.908 220.05 474.639 230.035C474.515 234.65 473.577 239.194 473.546 243.811C473.511 249.038 474.405 259.517 472.923 263.982C472.486 265.301 471.871 266.638 471.625 268.004C471.184 270.443 471.723 273.081 471.41 275.546C470.858 279.902 467.827 287.346 466.035 291.482C461.583 301.762 454.868 313.763 447.761 322.472C445.756 324.929 443.095 326.721 441.12 329.197C437.49 333.747 434.028 338.49 430.215 342.883C428.283 345.11 426.138 347.149 424.143 349.319C422.374 351.243 420.733 353.297 418.852 355.115C416.713 357.18 414.357 359.015 412.164 361.021C409.36 363.587 406.928 366.539 404.047 369.031C392.067 379.393 376.335 389.06 362.194 396.143C359.076 397.704 355.743 398.903 352.442 400.014C345.876 392.678 347.664 386.492 343.077 378.827C340.296 374.181 336.626 373.967 333.863 367.677C336.025 363.369 339.538 360.8 342.726 357.329C344.366 355.543 345.855 353.334 347.665 351.744C349.362 350.253 351.931 349.392 353.397 347.695C354.844 346.021 355.78 343.62 356.943 341.73C358.148 339.771 359.553 337.955 360.686 335.943C361.252 339.142 361.736 342.323 361.782 345.577C364.238 347.408 365.352 349.329 365.751 352.429C365.842 353.131 365.867 353.844 365.891 354.551C365.785 354.654 365.677 354.753 365.575 354.859C365.13 355.316 365.278 355.117 365.036 355.722C365.555 357.576 366.045 359.401 366.383 361.297C364.539 364.14 362.57 366.374 360.076 368.666C358.58 368.817 356.895 368.774 355.829 370C354.702 371.296 354.982 373.155 354.293 374.631C353.667 375.971 352.427 377.02 351.998 378.456C351.762 379.243 351.716 380.144 351.796 380.958C352.004 383.074 352.814 386.093 354.629 387.417C357.67 389.635 364.523 387.66 368 386.969C374.646 385.649 377.656 381.197 383.013 377.742C383.37 375.899 383.966 374.143 384.335 372.299C385.852 364.703 387.209 358.821 394.006 354.251C396.224 352.759 397.965 352.24 400.617 352.008C402.964 349.89 405.444 347.802 407.522 345.415C412.294 339.933 419.852 328.41 420.28 320.922C420.643 314.558 419.916 303.23 416.447 297.844C413.316 292.982 411.088 291.283 408.904 285.497C408.997 285.427 409.089 285.355 409.184 285.287C412.703 282.777 417.334 281.84 421.134 279.736C426.378 276.832 434.144 266.134 435.24 260.08C436.182 254.875 436.397 249.731 436.159 244.455C434.684 242.489 433.835 240.575 434.129 238.053C434.339 236.253 435.289 234.371 436.792 233.32C439.301 231.566 442.418 230.912 445.067 229.426C452.585 225.209 457.418 217.132 459.106 208.843C459.579 206.516 460.088 203.957 460.113 201.578C460.132 199.717 459.611 197.851 459.533 195.979C459.359 191.808 459.933 187.49 459.099 183.373C458.664 181.224 457.744 179.273 456.521 177.468C454.864 175.023 452.714 172.823 450.533 170.842C446.465 170.331 442.854 168.61 438.697 168.73C437.112 170.21 435.701 171.61 434.544 173.465C437.722 181.287 443.781 188.661 440.177 197.518C439.325 199.612 437.937 201.574 436.772 203.506C434.578 207.145 432.273 210.908 430.238 214.637C427.809 214.732 425.445 214.74 423.019 214.579C419.607 211.831 415.478 209.685 412.324 206.682Q407.86 206.699 403.396 206.766Q401.077 209.174 398.706 211.531C398.782 216.697 399.763 220.743 403.645 224.459C408.91 229.499 416.163 233.542 416.563 241.767C416.664 243.838 416.305 245.921 416.019 247.966C414.665 257.664 411.171 262.373 404.91 269.672C403.636 271.157 402.499 272.836 401.133 274.23C400.421 274.957 399.588 275.589 398.76 276.179C395.46 275.037 393.242 273.77 390.516 271.593C391.903 268.508 391.119 260.272 390.572 256.833ZM439.611 261.772C437.747 263.445 435.849 265.015 435.725 267.722C435.546 271.649 439.388 275.267 440.868 278.742C444.167 286.486 442.001 296.85 436.074 302.739C434.717 304.087 432.212 305.43 432.261 307.48C432.262 307.548 432.344 308.14 432.35 308.194C432.781 311.842 430.654 313.057 434.477 316.2C435.93 317.394 437.567 318.261 439.276 319.024C439.883 319.296 440.418 319.62 440.98 319.973C442.102 319.29 443.212 318.611 444.38 318.009C445.37 317.48 446.391 316.936 447.251 316.207C448.972 314.75 456.118 307.005 457.376 305.129C458.575 303.34 459.508 301.188 460.142 299.133C461.848 293.612 462.293 279.571 459.673 274.55C458.222 271.771 455.795 269.787 454.239 267.184C453.762 266.385 454.218 265.175 453.573 264.529C452.431 263.384 450.466 262.604 448.933 262.179C446.001 261.367 442.621 261.42 439.611 261.772Z"/>
	<path d="M488.065 285.73C489.13 282.299 490.8 279.113 491.936 275.722C493.765 270.266 494.819 264.195 496 258.563C496.599 255.703 497.45 252.812 497.8 249.911C498.301 245.769 498.367 240.923 498.147 236.752C497.932 232.687 495.958 228.944 497.336 224.931C498.927 220.299 494.062 203.03 492.784 197.53C491.926 193.835 491.287 190.07 490.332 186.401C489.763 184.212 487.964 180.479 488.233 178.281C488.332 177.473 488.825 176.671 489.304 176.02C492.712 171.392 497.1 167.395 500.87 163.086C505.879 157.362 510.264 151.19 515.765 145.891C518.882 142.889 522.398 140.217 525.732 137.454C528.721 134.978 531.621 132.322 534.786 130.077C541.983 124.975 549.307 120.183 556.708 115.392C559.949 113.293 563.069 110.742 566.55 109.056C569.83 107.467 573.441 105.751 576.898 104.613C579.188 103.859 581.667 103.514 583.89 102.587C587.282 101.173 590.125 98.7755 593.77 97.888C599.975 96.3773 606.649 96.5016 612.972 96.1767C617.058 95.9668 621.372 94.776 625.439 95.5545C631.126 96.6431 634.45 101.087 637.591 105.516C637.836 106.027 637.95 106.36 637.973 106.936C638.468 119.335 638.02 131.942 638.016 144.36C638.015 148.363 638.567 162.977 637.729 165.889C633.765 175.62 627.237 188.471 621.381 197.051C619.607 199.65 617.508 202.017 615.635 204.544C611.262 210.443 608.938 213.696 603.429 218.779C598.096 223.701 591.866 227.325 586.712 232.468C591.778 234.99 597.354 238.051 601.955 241.334C606.722 244.735 620.865 257.409 623.937 262.175C628.002 268.48 630.418 275.635 633.548 282.387C634.744 284.969 636.743 287.185 637.706 289.882C638.275 291.763 638.405 342.195 637.721 344.081C636.738 346.566 635.622 348.812 633.461 350.483C630.744 352.583 616.503 356.951 612.908 357.516C610.672 357.867 608.268 357.748 606.029 357.479C602.711 357.08 599.446 356.12 596.164 355.489C590.389 354.378 584.253 353.724 578.67 351.889C576.762 351.261 575.218 349.899 573.329 349.253C569.33 347.886 565.636 346.8 561.831 344.858C556.174 341.97 550.763 338.268 545.268 335.061C539.213 331.526 532.615 328.064 527.286 323.498C523.66 320.391 521.147 316.174 517.699 312.897C513.402 308.812 511.169 310.1 506.695 304.241C504.723 301.659 502.142 299.839 499.781 297.645C497.903 295.901 496.215 293.95 494.287 292.261C492.743 290.91 490.687 289.687 489.361 288.149C488.779 287.474 488.425 286.538 488.065 285.73ZM582.948 157.702C578.061 158.878 573.499 162.086 569.018 164.325L541.503 177.987C538.53 179.446 535.313 180.306 532.255 181.558C529.006 182.887 525.54 185.142 522.61 187.081C519.346 189.24 515.185 193.01 513.187 196.38C512.432 197.654 511.96 199.201 511.448 200.59C513.34 204.995 515.624 209.763 520.386 211.632Q521.487 212.06 522.603 212.445L525.437 210.887C530.007 208.276 534.83 206.887 539.52 204.665C541.289 203.828 542.56 202.125 544.328 201.289Q556.471 195.46 568.901 190.27C577.243 186.698 586.142 184.539 593.581 179.063C595.955 177.314 596.272 174.353 598.344 172.386C598.374 166.865 596.097 163.105 593.036 158.671C589.633 158.9 586.394 157.515 582.948 157.702ZM530.34 219.741C527.338 219.719 526.056 222.184 523.576 223.55C523.635 228.489 522.824 234.589 526.65 238.46C529.008 240.846 538.309 242.706 541.863 243.081C545.827 243.5 550.501 243.323 554.491 243.172C557.519 243.058 561.003 242.609 563.935 241.838C566.371 241.163 571.259 238.601 572.411 236.24C573.104 234.818 571.85 230.554 571.21 229.226C569.381 225.436 565.92 223.74 562.114 222.51C551.769 219.169 541.084 219.413 530.34 219.741ZM522.765 258.593C519.187 259.581 515.796 260.292 513.758 263.723C512.706 265.493 512.252 267.566 511.761 269.546C512.397 271.642 513.153 273.664 514.345 275.518L514.717 275.722C518.656 277.9 522.06 280.841 526.092 282.918C533.78 286.879 542.402 289.384 550.331 292.881C554.873 294.884 558.669 297.806 563.011 300.079C565.232 301.241 567.724 301.83 570.025 302.818C574.951 304.935 580.993 309.192 586.391 309.398C589.218 309.27 591.645 308.023 593.546 305.905C595.457 303.776 596.881 300.427 596.497 297.514C596.443 297.104 596.284 296.731 596.139 296.35C595.429 294.485 595.127 292.931 594.982 290.943C589.868 286.511 575.026 282.397 568.046 279.267C564.778 277.801 562.157 275.244 558.934 273.727C553.008 270.937 546.796 268.775 540.741 266.289C537.729 265.054 534.864 263.504 531.864 262.271C529.678 261.372 527.284 260.826 525.152 259.828C524.328 259.442 523.616 258.93 522.765 258.593Z"/>
	<path fill="#201F20" fill-opacity="0.98039216" d="M341.907 145.535C338.794 142.86 340.275 141.388 338.587 138.526C337.806 137.202 336.312 135.562 334.761 135.202C334.583 135.161 334.403 135.129 334.224 135.093L334.117 134.843L335.33 133.571L335.792 133.726C337.887 136.531 343.172 142.059 343.156 145.63L342.739 145.852L341.907 145.535Z"/>
	<path d="M105.847 163.231C104.821 161.758 103.648 160.383 103.065 158.661C102.168 156.01 102.429 153.521 103.701 151.043C106.041 146.484 107.248 144.444 112.492 144.294C113.538 144.265 114.76 144.348 115.754 143.997C115.914 143.941 116.07 143.877 116.228 143.816C116.815 144.047 116.575 143.98 117.157 144.11C120.237 144.796 122.174 145.609 124.542 147.663C124.744 151.734 125.74 155.66 125.858 159.759C124.861 161.233 123.635 162.487 122.268 163.616C120.664 164.939 117.666 166.71 115.499 166.33C114.795 166.207 114.072 166.007 113.369 165.854C110.784 165.123 108.321 164.28 105.847 163.231Z"/>
	<path d="M271.632 144.321L275.585 144.069C278.274 143.566 280.766 144.429 283.131 145.673C290.872 149.742 286.756 150.632 288.446 155.787L288.564 156.137Q287.877 158.072 286.847 159.848C284.737 163.551 281.3 165.588 277.316 166.71C275.49 166.862 273.713 166.778 271.887 166.685C269.433 163.583 266.499 160.796 263.967 157.727C265.702 152.015 266.212 147.828 271.632 144.321Z"/>
	<path d="M249.031 162.045C248.544 162.141 248.843 162.11 248.131 162.04C247.585 160.584 247.433 159.162 247.378 157.619C247.284 154.985 247.058 149.504 248.928 147.515C248.702 152.11 248.157 157.075 248.96 161.625L249.031 162.045Z"/>
	<path d="M365.09 183.693C368.449 195.567 369.063 208.746 369.729 220.997C369.904 224.208 370.538 227.388 370.558 230.612C370.576 233.612 370.006 241.225 369.152 243.985C368.556 239.366 369.572 234.736 369.379 230.116C369.272 227.563 368.785 225.03 368.607 222.48C368.401 219.513 368.606 216.527 368.385 213.558C367.962 207.892 367.077 202.177 366.512 196.51C366.318 194.561 364.187 185.643 364.554 184.576C364.666 184.25 364.911 183.987 365.09 183.693Z"/>
	<path d="M390.516 271.593C389.686 269.518 390.134 259.322 390.572 256.833C391.119 260.272 391.903 268.508 390.516 271.593Z"/>
	<path d="M385.578 338.514C384.728 338.694 383.398 339.119 382.551 338.752C381.077 338.113 379.579 334.25 378.197 333.011C375.986 331.03 372.987 330.036 370.441 328.561C369.589 328.067 368.756 327.504 368.523 326.491C368.496 326.374 368.477 326.256 368.458 326.137C367.917 322.651 370.378 320.647 372.084 317.982C372.962 316.612 373.614 315.118 374.28 313.637C375.835 310.178 377.553 306.71 378.93 303.18C379.81 300.923 379.888 298.042 380.84 295.976C381.205 295.184 382.003 294.35 382.49 293.59C385.956 294.465 394.382 299.729 397.245 302.186C397.88 305.127 398.926 306.479 400.603 308.918C400.687 311.736 400.622 314.573 400.625 317.393C400.353 317.71 400.093 318.038 399.819 318.351C399.243 319.01 399.073 319.25 398.961 320.126C398.636 322.667 398.075 325.324 397.088 327.696C394.704 333.423 391.145 336.185 385.578 338.514Z"/>
	<path d="M125.676 450.162C121.051 452.15 117.038 454.817 112.568 457.04C106.252 460.18 91.9911 464.252 85.182 461.875C75.6885 458.56 65.9799 453.219 61.4395 443.877Q60.3134 441.58 59.3608 439.206Q58.4082 436.832 57.6344 434.394Q56.8607 431.956 56.27 429.467Q55.6793 426.979 55.2749 424.453C53.6881 414.572 54.733 397.849 58.0376 388.435C59.552 384.122 64.6402 376.896 68.6573 374.994C69.6043 375.073 70.3306 375.219 71.181 375.661C75.6903 378.006 80.0007 382.199 83.8583 385.498C85.9272 387.267 88.1134 388.768 90.2576 390.432C92.4186 392.109 94.4872 394.023 96.7802 395.513C103.692 400.004 112.498 402.87 120.048 406.312C123.962 408.097 127.817 410.485 131.892 411.869C132.893 412.209 134.029 412.23 135.078 412.281C140.615 412.547 146.869 417.467 152.74 418.905C150.666 421.973 148.099 424.727 145.871 427.689C141.757 433.159 136.034 441.881 131.461 446.318C129.711 448.016 127.825 449.06 125.676 450.162Z"/>
	<path d="M242.948 418.983C243.88 418.145 244.879 417.361 246.036 416.855C248.52 415.766 251.39 415.491 253.971 414.637C256.713 413.729 259.3 412.303 261.999 411.263C264.388 410.343 266.922 409.723 269.264 408.708C276.115 405.737 282.812 402.057 289.446 398.636C292.331 397.148 295.39 395.932 298.165 394.244C300.984 392.53 303.513 390.246 306.159 388.277C308.602 386.459 311.182 384.819 313.581 382.945C316.848 380.394 319.305 376.672 323.467 375.443Q324.184 375.237 324.912 375.077C326.536 374.944 328.169 375.208 329.605 376.012C330.416 376.466 331.268 377.127 331.699 377.966C332.224 378.988 335.376 390.485 335.55 391.704C335.872 393.966 335.337 396.367 335.607 398.642C335.833 400.547 336.756 402.406 337.187 404.279C337.885 407.312 337.614 410.924 337.618 414.042C337.636 425.374 337.451 437.989 331.425 448.003C330.283 449.9 328.953 451.766 327.237 453.187C325.475 454.645 309.223 464.203 307.305 464.611C303.571 465.407 300.016 464.067 296.46 463.156C294.186 462.573 291.846 462.507 289.572 461.861C282.345 459.809 276.203 455.127 269.936 451.171C263.331 447.006 256.047 440.226 252.002 433.611C250.634 431.375 249.993 428.747 248.57 426.55C246.85 423.895 244.574 421.745 242.948 418.983Z"/>
</svg>
